<svg xmlns="http://www.w3.org/2000/svg" version="1.1" xmlns:xlink="http://www.w3.org/1999/xlink" xmlns:svgjs="http://svgjs.dev/svgjs" width="1500" height="935" viewBox="0 0 1500 935"><g transform="matrix(1,0,0,1,-0.9090909090909918,0.3785425101214628)"><svg viewBox="0 0 396 247" data-background-color="#f9f9f9" preserveAspectRatio="xMidYMid meet" height="935" width="1500" xmlns="http://www.w3.org/2000/svg" xmlns:xlink="http://www.w3.org/1999/xlink"><g id="tight-bounds" transform="matrix(1,0,0,1,0.2400000000000091,-0.09999999999999432)"><svg viewBox="0 0 395.52 247.2" height="247.2" width="395.52"><g><svg></svg></g><g><svg viewBox="0 0 395.52 247.2" height="247.2" width="395.52"><mask id="520a613c-8b89-47d7-acdc-9c73be31666d"><rect width="395.52" height="247.2" fill="white"></rect><g transform="matrix(1,0,0,1,137.24820317359507,37.08)" id="clone"><svg viewBox="0 0 121.02359365280984 173.04" height="173.04" width="121.02359365280984"><g><svg viewBox="0 0 121.02359365280984 173.04" height="173.04" width="121.02359365280984"><g><svg viewBox="0 0 151.89702743104695 217.18295444169462" height="173.04" width="121.02359365280984"><g><svg viewBox="0 0 151.89702743104695 217.18295444169462" height="217.18295444169462" width="151.89702743104695"><g id="SvgjsG1009"><svg viewBox="0 0 151.89702743104695 217.18295444169462" height="217.18295444169462" width="151.89702743104695" id="SvgjsSvg1008"><g><svg viewBox="0 0 151.89702743104695 171.97061280000003" height="171.97061280000003" width="151.89702743104695"><g transform="matrix(1,0,0,1,0,0)"><svg width="151.89702743104695" viewBox="0.7999999999999998 -39.55 37.7 42.55" height="171.97061280000003" data-palette-color="#030303"><path d="M5.45 0L5.45 0Q4.8 0 4.3-0.33 3.8-0.65 3.8-1.3L3.8-1.3 3.8-35.35Q3.8-35.95 4.3-36.25 4.8-36.55 5.45-36.55L5.45-36.55Q6.05-36.55 6.58-36.25 7.1-35.95 7.1-35.35L7.1-35.35 7.1-1.3Q7.1-0.65 6.58-0.33 6.05 0 5.45 0ZM25.05 0L16.2 0Q15.55 0 15.12-0.35 14.7-0.7 14.7-1.25L14.7-1.25 14.7-35.35Q14.7-35.85 15.12-36.2 15.55-36.55 16.2-36.55L16.2-36.55 25.05-36.55Q28-36.55 30.37-35.5 32.75-34.45 34.12-32.1 35.5-29.75 35.5-25.9L35.5-25.9 35.5-10.7Q35.5-6.8 34.12-4.45 32.75-2.1 30.37-1.05 28 0 25.05 0L25.05 0ZM18-33.5L18-3.05 25.05-3.05Q28.4-3.05 30.3-4.9 32.2-6.75 32.2-10.7L32.2-10.7 32.2-25.9Q32.2-29.8 30.3-31.65 28.4-33.5 25.05-33.5L25.05-33.5 18-33.5Z" opacity="1" transform="matrix(1,0,0,1,0,0)" fill="black" class="wordmark-text-0" id="SvgjsPath1007" stroke-width="5" stroke="black" stroke-linejoin="round"></path></svg></g></svg></g><g transform="matrix(1,0,0,1,2.5,194.04544026369206)"><svg viewBox="0 0 146.89702743104695 23.137514178002572" height="23.137514178002572" width="146.89702743104695"><g transform="matrix(1,0,0,1,0,0)"><svg width="146.89702743104695" viewBox="-3.25 -35.05 239.37 38.55" height="23.137514178002572" data-palette-color="#030303"><path d="M20.75-31.05L20.25-23.5 14.45-23.5 14.45 0 5.9 0 5.9-23.5-0.25-23.5 0.25-31.05 20.75-31.05ZM30.3-13.45L30.3-13.45 30.3 0 22 0 22-23.95 29.3-23.95 29.8-22.5 30-22.5Q31.15-23.8 32.32-24.18 33.5-24.55 36.15-24.55L36.15-24.55 35.8-16.55 33.5-16.55Q31.55-16.55 30.92-15.95 30.3-15.35 30.3-13.45ZM55.7-17.7L55.7-17.7 55.45-7.35Q55.45-6.4 55.92-6.08 56.4-5.75 57.55-5.75L57.55-5.75 56.8 0.3Q53.9 0.5 53.59 0.5L53.59 0.5Q49.9 0.5 48.9-2.05L48.9-2.05 48.65-2.05Q46.8 0.5 42.95 0.5L42.95 0.5Q40 0.5 38.42-1.4 36.85-3.3 36.85-6.6L36.85-6.6Q36.85-10.75 39.42-12.35 42-13.95 47.55-14.45L47.55-14.45 47.55-15.65Q47.55-17.05 46.15-17.05L46.15-17.05Q43.75-17.05 38.65-15.6L38.65-15.6 37.4-22.9Q43.8-24.55 48.05-24.55 52.3-24.55 54-22.9 55.7-21.25 55.7-17.7ZM46.05-5.35L46.05-5.35Q47.9-5.35 47.9-7.3L47.9-7.3 47.9-9.75Q46.05-9.5 45.27-8.97 44.5-8.45 44.5-7.2L44.5-7.2Q44.5-5.35 46.05-5.35ZM81.39-5.75L80.64 0.3 77.29 0.5Q73.44 0.5 72.59-2.05L72.59-2.05 72.34-2.05Q70.69 0.5 67.29 0.5L67.29 0.5Q62.79 0.5 60.97-2.65 59.14-5.8 59.14-12.03 59.14-18.25 61.19-21.4 63.24-24.55 67.09-24.55L67.09-24.55Q69.74-24.55 71.19-23.3L71.19-23.3 71.19-32.05 79.54-32.05 79.54-7.35Q79.54-6.4 79.94-6.08 80.34-5.75 81.39-5.75L81.39-5.75ZM69.32-17.5Q68.24-17.5 67.89-16.23 67.54-14.95 67.54-12.58 67.54-10.2 67.59-9.35 67.64-8.5 67.82-7.63 67.99-6.75 68.37-6.43 68.74-6.1 69.62-6.1 70.49-6.1 71.44-6.55L71.44-6.55 71.44-16.9Q70.39-17.5 69.32-17.5ZM93.29-17.4L93.29-17.4Q91.99-17.4 91.59-16.53 91.19-15.65 91.19-13.85L91.19-13.85 95.54-13.85 95.54-15.05Q95.54-17.4 93.29-17.4ZM93.49-24.55L93.49-24.55Q98.64-24.55 100.87-22.08 103.09-19.6 103.09-15L103.09-15Q103.09-14.4 102.74-9.6L102.74-9.6 91.34-9.6Q91.34-5.85 94.79-5.85L94.79-5.85Q96.44-5.85 101.24-7L101.24-7 101.94-0.8Q97.74 0.5 93.54 0.5L93.54 0.5Q88.39 0.5 85.64-2.88 82.89-6.25 82.89-12.05L82.89-12.05Q82.89-24.55 93.49-24.55ZM124.29-15.23Q124.29-10.8 125.16-8.93 126.04-7.05 128.04-7.05 130.04-7.05 133.69-8L133.69-8 134.99-0.95Q131.04 0.5 127.04 0.5L127.04 0.5Q121.04 0.5 118.31-3.48 115.59-7.45 115.59-15.33 115.59-23.2 118.44-27.38 121.29-31.55 127.74-31.55L127.74-31.55Q131.54-31.55 134.99-29.95L134.99-29.95 133.64-22.2Q129.74-23.5 128.19-23.5L128.19-23.5Q125.99-23.5 125.14-21.58 124.29-19.65 124.29-15.23ZM146.38-17.4L146.38-17.4Q145.08-17.4 144.68-16.53 144.28-15.65 144.28-13.85L144.28-13.85 148.63-13.85 148.63-15.05Q148.63-17.4 146.38-17.4ZM146.58-24.55L146.58-24.55Q151.73-24.55 153.96-22.08 156.18-19.6 156.18-15L156.18-15Q156.18-14.4 155.83-9.6L155.83-9.6 144.43-9.6Q144.43-5.85 147.88-5.85L147.88-5.85Q149.53-5.85 154.33-7L154.33-7 155.03-0.8Q150.83 0.5 146.63 0.5L146.63 0.5Q141.48 0.5 138.73-2.88 135.98-6.25 135.98-12.05L135.98-12.05Q135.98-24.55 146.58-24.55ZM166.63-22.2L166.83-22.2Q169.58-24.55 172.88-24.55 176.18-24.55 177.51-23.03 178.83-21.5 178.83-18.45L178.83-18.45 178.83 0 170.33 0 170.33-15.6Q170.33-16.85 169.23-16.85L169.23-16.85Q167.83-16.85 166.88-16.15L166.88-16.15 166.88 0 158.48 0 158.48-23.95 166.13-23.95 166.63-22.2ZM195.58-6.6L195.33 0.05Q191.63 0.5 188.9 0.5 186.18 0.5 184.65-0.93 183.13-2.35 183.13-5.85L183.13-5.85 183.13-17.45 180.73-17.45 180.73-23.65 183.53-23.65 183.98-28.25 191.53-28.25 191.53-23.65 195.98-23.65 195.63-17.45 191.48-17.45 191.48-7.5Q191.48-6.45 192.48-6.45L192.48-6.45Q192.58-6.45 195.58-6.6L195.58-6.6ZM205.98-13.45L205.98-13.45 205.98 0 197.68 0 197.68-23.95 204.98-23.95 205.48-22.5 205.68-22.5Q206.83-23.8 208-24.18 209.18-24.55 211.83-24.55L211.83-24.55 211.48-16.55 209.18-16.55Q207.23-16.55 206.6-15.95 205.98-15.35 205.98-13.45ZM223.32-17.4L223.32-17.4Q222.02-17.4 221.62-16.53 221.22-15.65 221.22-13.85L221.22-13.85 225.57-13.85 225.57-15.05Q225.57-17.4 223.32-17.4ZM223.52-24.55L223.52-24.55Q228.67-24.55 230.9-22.08 233.12-19.6 233.12-15L233.12-15Q233.12-14.4 232.77-9.6L232.77-9.6 221.37-9.6Q221.37-5.85 224.82-5.85L224.82-5.85Q226.47-5.85 231.27-7L231.27-7 231.97-0.8Q227.77 0.5 223.57 0.5L223.57 0.5Q218.42 0.5 215.67-2.88 212.92-6.25 212.92-12.05L212.92-12.05Q212.92-24.55 223.52-24.55Z" opacity="1" transform="matrix(1,0,0,1,0,0)" fill="black" class="slogan-text-1" id="SvgjsPath1006" stroke-width="5" stroke="black" stroke-linejoin="round"></path></svg></g></svg></g></svg></g></svg></g></svg></g></svg></g></svg></g></mask><g mask="url(#520a613c-8b89-47d7-acdc-9c73be31666d)"><g><path d="M197.76 247.2v0c-2.931 0-5.523-0.744-7.778-2.232-2.254-1.443-3.382-3.63-3.382-6.56v0-230.292c0-2.705 1.127-4.734 3.382-6.087 2.254-1.353 4.847-2.029 7.778-2.029v0c2.705 0 5.253 0.676 7.643 2.029 2.345 1.353 3.517 3.382 3.517 6.087v0 230.292c0 2.931-1.172 5.118-3.517 6.56-2.39 1.488-4.937 2.232-7.643 2.232z" fill="#030303" fill-rule="nonzero" stroke="none" stroke-width="1" stroke-linecap="butt" stroke-linejoin="miter" stroke-miterlimit="10" stroke-dasharray="" stroke-dashoffset="0" font-family="none" font-weight="none" font-size="none" text-anchor="none" style="mix-blend-mode: normal" data-fill-palette-color="tertiary"></path></g></g><g transform="matrix(1,0,0,1,137.24820317359507,37.08)"><svg viewBox="0 0 121.02359365280984 173.04" height="173.04" width="121.02359365280984"><g><svg viewBox="0 0 121.02359365280984 173.04" height="173.04" width="121.02359365280984"><g><svg viewBox="0 0 151.89702743104695 217.18295444169462" height="173.04" width="121.02359365280984"><g><svg viewBox="0 0 151.89702743104695 217.18295444169462" height="217.18295444169462" width="151.89702743104695"><g id="textblocktransform"><svg viewBox="0 0 151.89702743104695 217.18295444169462" height="217.18295444169462" width="151.89702743104695" id="textblock"><g><svg viewBox="0 0 151.89702743104695 171.97061280000003" height="171.97061280000003" width="151.89702743104695"><g transform="matrix(1,0,0,1,0,0)"><svg width="151.89702743104695" viewBox="0.7999999999999998 -39.55 37.7 42.55" height="171.97061280000003" data-palette-color="#030303"><path d="M5.45 0L5.45 0Q4.8 0 4.3-0.33 3.8-0.65 3.8-1.3L3.8-1.3 3.8-35.35Q3.8-35.95 4.3-36.25 4.8-36.55 5.45-36.55L5.45-36.55Q6.05-36.55 6.58-36.25 7.1-35.95 7.1-35.35L7.1-35.35 7.1-1.3Q7.1-0.65 6.58-0.33 6.05 0 5.45 0ZM25.05 0L16.2 0Q15.55 0 15.12-0.35 14.7-0.7 14.7-1.25L14.7-1.25 14.7-35.35Q14.7-35.85 15.12-36.2 15.55-36.55 16.2-36.55L16.2-36.55 25.05-36.55Q28-36.55 30.37-35.5 32.75-34.45 34.12-32.1 35.5-29.75 35.5-25.9L35.5-25.9 35.5-10.7Q35.5-6.8 34.12-4.45 32.75-2.1 30.37-1.05 28 0 25.05 0L25.05 0ZM18-33.5L18-3.05 25.05-3.05Q28.4-3.05 30.3-4.9 32.2-6.75 32.2-10.7L32.2-10.7 32.2-25.9Q32.2-29.8 30.3-31.65 28.4-33.5 25.05-33.5L25.05-33.5 18-33.5Z" opacity="1" transform="matrix(1,0,0,1,0,0)" fill="#030303" class="wordmark-text-0" data-fill-palette-color="primary" id="text-0"></path></svg></g></svg></g><g transform="matrix(1,0,0,1,2.5,194.04544026369206)"><svg viewBox="0 0 146.89702743104695 23.137514178002572" height="23.137514178002572" width="146.89702743104695"><g transform="matrix(1,0,0,1,0,0)"><svg width="146.89702743104695" viewBox="-3.25 -35.05 239.37 38.55" height="23.137514178002572" data-palette-color="#030303"><path d="M20.75-31.05L20.25-23.5 14.45-23.5 14.45 0 5.9 0 5.9-23.5-0.25-23.5 0.25-31.05 20.75-31.05ZM30.3-13.45L30.3-13.45 30.3 0 22 0 22-23.95 29.3-23.95 29.8-22.5 30-22.5Q31.15-23.8 32.32-24.18 33.5-24.55 36.15-24.55L36.15-24.55 35.8-16.55 33.5-16.55Q31.55-16.55 30.92-15.95 30.3-15.35 30.3-13.45ZM55.7-17.7L55.7-17.7 55.45-7.35Q55.45-6.4 55.92-6.08 56.4-5.75 57.55-5.75L57.55-5.75 56.8 0.3Q53.9 0.5 53.59 0.5L53.59 0.5Q49.9 0.5 48.9-2.05L48.9-2.05 48.65-2.05Q46.8 0.5 42.95 0.5L42.95 0.5Q40 0.5 38.42-1.4 36.85-3.3 36.85-6.6L36.85-6.6Q36.85-10.75 39.42-12.35 42-13.95 47.55-14.45L47.55-14.45 47.55-15.65Q47.55-17.05 46.15-17.05L46.15-17.05Q43.75-17.05 38.65-15.6L38.65-15.6 37.4-22.9Q43.8-24.55 48.05-24.55 52.3-24.55 54-22.9 55.7-21.25 55.7-17.7ZM46.05-5.35L46.05-5.35Q47.9-5.35 47.9-7.3L47.9-7.3 47.9-9.75Q46.05-9.5 45.27-8.97 44.5-8.45 44.5-7.2L44.5-7.2Q44.5-5.35 46.05-5.35ZM81.39-5.75L80.64 0.3 77.29 0.5Q73.44 0.5 72.59-2.05L72.59-2.05 72.34-2.05Q70.69 0.5 67.29 0.5L67.29 0.5Q62.79 0.5 60.97-2.65 59.14-5.8 59.14-12.03 59.14-18.25 61.19-21.4 63.24-24.55 67.09-24.55L67.09-24.55Q69.74-24.55 71.19-23.3L71.19-23.3 71.19-32.05 79.54-32.05 79.54-7.35Q79.54-6.4 79.94-6.08 80.34-5.75 81.39-5.75L81.39-5.75ZM69.32-17.5Q68.24-17.5 67.89-16.23 67.54-14.95 67.54-12.58 67.54-10.2 67.59-9.35 67.64-8.5 67.82-7.63 67.99-6.75 68.37-6.43 68.74-6.1 69.62-6.1 70.49-6.1 71.44-6.55L71.44-6.55 71.44-16.9Q70.39-17.5 69.32-17.5ZM93.29-17.4L93.29-17.4Q91.99-17.4 91.59-16.53 91.19-15.65 91.19-13.85L91.19-13.85 95.54-13.85 95.54-15.05Q95.54-17.4 93.29-17.4ZM93.49-24.55L93.49-24.55Q98.64-24.55 100.87-22.08 103.09-19.6 103.09-15L103.09-15Q103.09-14.4 102.74-9.6L102.74-9.6 91.34-9.6Q91.34-5.85 94.79-5.85L94.79-5.85Q96.44-5.85 101.24-7L101.24-7 101.94-0.8Q97.74 0.5 93.54 0.5L93.54 0.5Q88.39 0.5 85.64-2.88 82.89-6.25 82.89-12.05L82.89-12.05Q82.89-24.55 93.49-24.55ZM124.29-15.23Q124.29-10.8 125.16-8.93 126.04-7.05 128.04-7.05 130.04-7.05 133.69-8L133.69-8 134.99-0.95Q131.04 0.5 127.04 0.5L127.04 0.5Q121.04 0.5 118.31-3.48 115.59-7.45 115.59-15.33 115.59-23.2 118.44-27.38 121.29-31.55 127.74-31.55L127.74-31.55Q131.54-31.55 134.99-29.95L134.99-29.95 133.64-22.2Q129.74-23.5 128.19-23.5L128.19-23.5Q125.99-23.5 125.14-21.58 124.29-19.65 124.29-15.23ZM146.38-17.4L146.38-17.4Q145.08-17.4 144.68-16.53 144.28-15.65 144.28-13.85L144.28-13.85 148.63-13.85 148.63-15.05Q148.63-17.4 146.38-17.4ZM146.58-24.55L146.58-24.55Q151.73-24.55 153.96-22.08 156.18-19.6 156.18-15L156.18-15Q156.18-14.4 155.83-9.6L155.83-9.6 144.43-9.6Q144.43-5.85 147.88-5.85L147.88-5.85Q149.53-5.85 154.33-7L154.33-7 155.03-0.8Q150.83 0.5 146.63 0.5L146.63 0.5Q141.48 0.5 138.73-2.88 135.98-6.25 135.98-12.05L135.98-12.05Q135.98-24.55 146.58-24.55ZM166.63-22.2L166.83-22.2Q169.58-24.55 172.88-24.55 176.18-24.55 177.51-23.03 178.83-21.5 178.83-18.45L178.83-18.45 178.83 0 170.33 0 170.33-15.6Q170.33-16.85 169.23-16.85L169.23-16.85Q167.83-16.85 166.88-16.15L166.88-16.15 166.88 0 158.48 0 158.48-23.95 166.13-23.95 166.63-22.2ZM195.58-6.6L195.33 0.05Q191.63 0.5 188.9 0.5 186.18 0.5 184.65-0.93 183.13-2.35 183.13-5.85L183.13-5.85 183.13-17.45 180.73-17.45 180.73-23.65 183.53-23.65 183.98-28.25 191.53-28.25 191.53-23.65 195.98-23.65 195.63-17.45 191.48-17.45 191.48-7.5Q191.48-6.45 192.48-6.45L192.48-6.45Q192.58-6.45 195.58-6.6L195.58-6.6ZM205.98-13.45L205.98-13.45 205.98 0 197.68 0 197.68-23.95 204.98-23.95 205.48-22.5 205.68-22.5Q206.83-23.8 208-24.18 209.18-24.55 211.83-24.55L211.83-24.55 211.48-16.55 209.18-16.55Q207.23-16.55 206.6-15.95 205.98-15.35 205.98-13.45ZM223.32-17.4L223.32-17.4Q222.02-17.4 221.62-16.53 221.22-15.65 221.22-13.85L221.22-13.85 225.57-13.85 225.57-15.05Q225.57-17.4 223.32-17.4ZM223.52-24.55L223.52-24.55Q228.67-24.55 230.9-22.08 233.12-19.6 233.12-15L233.12-15Q233.12-14.4 232.77-9.6L232.77-9.6 221.37-9.6Q221.37-5.85 224.82-5.85L224.82-5.85Q226.47-5.85 231.27-7L231.27-7 231.97-0.8Q227.77 0.5 223.57 0.5L223.57 0.5Q218.42 0.5 215.67-2.88 212.92-6.25 212.92-12.05L212.92-12.05Q212.92-24.55 223.52-24.55Z" opacity="1" transform="matrix(1,0,0,1,0,0)" fill="#030303" class="slogan-text-1" data-fill-palette-color="secondary" id="text-1"></path></svg></g></svg></g></svg></g></svg></g></svg></g></svg></g></svg></g></svg></g><defs></defs></svg><rect width="395.52" height="247.2" fill="none" stroke="none" visibility="hidden"></rect></g></svg></g></svg>