<svg xmlns="http://www.w3.org/2000/svg" version="1.1" xmlns:xlink="http://www.w3.org/1999/xlink" xmlns:svgjs="http://svgjs.dev/svgjs" width="1500" height="1500" viewBox="0 0 1500 1500"><rect width="1500" height="1500" fill="#000000"></rect><g transform="matrix(0.6666666666666666,0,0,0.6666666666666666,249.39393939393938,438.5856950067477)"><svg viewBox="0 0 396 247" data-background-color="#f9f9f9" preserveAspectRatio="xMidYMid meet" height="935" width="1500" xmlns="http://www.w3.org/2000/svg" xmlns:xlink="http://www.w3.org/1999/xlink"><g id="tight-bounds" transform="matrix(1,0,0,1,0.2400000000000091,-0.09999999999999432)"><svg viewBox="0 0 395.52 247.2" height="247.2" width="395.52"><g><svg></svg></g><g><svg viewBox="0 0 395.52 247.2" height="247.2" width="395.52"><mask id="786b379f-df98-497e-ad1f-b78db51f6ba3"><rect width="640" height="400" fill="white"></rect><g transform="matrix(1,0,0,1,118.15254926919933,37.08)"><svg viewBox="0 0 159.21490146160133 173.04" height="173.04" width="159.21490146160133"><g><svg viewBox="0 0 159.21490146160133 173.04" height="173.04" width="159.21490146160133"><g><svg viewBox="0 0 224.0890650283019 243.54737814443365" height="173.04" width="159.21490146160133"><g><svg viewBox="0 0 224.0890650283019 243.54737814443365" height="243.54737814443365" width="224.0890650283019"><g id="SvgjsG1030"><svg viewBox="0 0 224.0890650283019 243.54737814443365" height="243.54737814443365" width="224.0890650283019" id="SvgjsSvg1029"><g><svg viewBox="0 0 224.0890650283019 171.9706128" height="171.9706128" width="224.0890650283019"><g transform="matrix(1,0,0,1,0,0)"><svg width="224.0890650283019" viewBox="-1.9 -39.4 56.25 43.4" height="171.9706128" data-palette-color="#030303"><path d="M14.85-35.4L14.85-35.4 14.85-34.4Q13.15-34.35 12.28-34.02 11.4-33.7 11.1-32.83 10.8-31.95 10.8-30.1L10.8-30.1 10.8-5.3Q10.8-3.5 11.1-2.6 11.4-1.7 12.28-1.4 13.15-1.1 14.85-1L14.85-1 14.85 0Q13.7-0.1 11.98-0.13 10.25-0.15 8.5-0.15L8.5-0.15Q6.55-0.15 4.85-0.13 3.15-0.1 2.1 0L2.1 0 2.1-1Q3.8-1.1 4.67-1.4 5.55-1.7 5.85-2.6 6.15-3.5 6.15-5.3L6.15-5.3 6.15-30.1Q6.15-31.95 5.85-32.83 5.55-33.7 4.67-34.02 3.8-34.35 2.1-34.4L2.1-34.4 2.1-35.4Q3.15-35.35 4.85-35.3 6.55-35.25 8.5-35.25L8.5-35.25Q10.25-35.25 11.98-35.3 13.7-35.35 14.85-35.4ZM32.7-35.4L32.7-35.4Q41.65-35.4 46-30.93 50.35-26.45 50.35-18.1L50.35-18.1Q50.35-12.65 48.22-8.58 46.1-4.5 42.05-2.25 38 0 32.25 0L32.25 0Q31.15 0 29-0.08 26.85-0.15 25.25-0.15L25.25-0.15Q23.5-0.15 21.8-0.13 20.1-0.1 19.05 0L19.05 0 19.05-1Q20.75-1.1 21.62-1.4 22.5-1.7 22.8-2.6 23.1-3.5 23.1-5.3L23.1-5.3 23.1-30.1Q23.1-31.95 22.8-32.83 22.5-33.7 21.62-34.02 20.75-34.35 19.05-34.4L19.05-34.4 19.05-35.4Q20.1-35.35 21.8-35.27 23.5-35.2 25.15-35.25L25.15-35.25Q26.9-35.3 29.1-35.35 31.3-35.4 32.7-35.4ZM31.45-34.5L31.45-34.5Q29.15-34.5 28.45-33.65 27.75-32.8 27.75-30.2L27.75-30.2 27.75-5.2Q27.75-2.6 28.47-1.75 29.2-0.9 31.5-0.9L31.5-0.9Q36.95-0.9 39.95-2.88 42.95-4.85 44.15-8.65 45.35-12.45 45.35-17.9L45.35-17.9Q45.35-26.3 42.27-30.4 39.2-34.5 31.45-34.5Z" opacity="1" transform="matrix(1,0,0,1,0,0)" fill="black" class="wordmark-text-0" id="SvgjsPath1028" stroke-width="7" stroke="black" stroke-linejoin="round"></path></svg></g></svg></g><g transform="matrix(1,0,0,1,3.5,205.86622500077823)"><svg viewBox="0 0 217.0890650283019 37.681153143655436" height="37.681153143655436" width="217.0890650283019"><g transform="matrix(1,0,0,1,0,0)"><svg width="217.0890650283019" viewBox="0.75 -41 257.91999999999996 45.6" height="37.681153143655436" data-palette-color="#030303"><path d="M27.6-31.55L18.1-31.55 11.8 0 7.95 0 14.25-31.55 4.75-31.55 5.45-34.9 28.3-34.9 27.6-31.55ZM28.35 0L24.65 0 29.8-25.8 33.5-25.8 32.5-20.75 33-20.75Q34.9-25.8 39.7-25.8L39.7-25.8 41.45-25.8 40.7-22 38.5-22Q35.5-22 33.77-20.28 32.05-18.55 31.45-15.45L31.45-15.45 28.35 0ZM62.1 0L58.3 0Q57.1 0 56.42-0.6 55.75-1.2 55.75-2.35L55.75-2.35Q55.75-2.75 55.8-3.1 55.85-3.45 55.95-3.85L55.95-3.85 56.3-5.55 55.8-5.55Q53.5 0.6 48.4 0.6L48.4 0.6Q45.05 0.6 43.35-1.75 41.65-4.1 41.65-7.9L41.65-7.9Q41.65-9.25 41.85-11 42.05-12.75 42.35-14.35L42.35-14.35Q43.5-20.2 46.2-23.3 48.9-26.4 53.15-26.4L53.15-26.4Q55.4-26.4 57.07-25.2 58.75-24 59-21.6L59-21.6 59.5-21.6 60.35-25.8 64.05-25.8 59.55-3.2 62.75-3.2 62.1 0ZM49.85-2.7L49.85-2.7Q51.3-2.7 52.4-3.33 53.5-3.95 54.5-5.2L54.5-5.2Q55.5-6.45 56.3-7.98 57.1-9.5 57.35-10.8L57.35-10.8 58.75-17.8Q58.9-18.65 58.62-19.6 58.35-20.55 57.7-21.33 57.05-22.1 56.02-22.63 55-23.15 53.7-23.15L53.7-23.15Q50.85-23.15 49.12-21.38 47.4-19.6 46.7-16.25L46.7-16.25 45.55-10.45Q45.4-9.75 45.37-9.1 45.35-8.45 45.35-7.95L45.35-7.95Q45.35-5.2 46.55-3.95 47.75-2.7 49.85-2.7ZM88.24 0L84.44 0Q83.24 0 82.57-0.6 81.89-1.2 81.89-2.35L81.89-2.35Q81.89-2.75 81.94-3.1 81.99-3.45 82.09-3.85L82.09-3.85 82.44-5.55 81.94-5.55Q79.64 0.6 74.54 0.6L74.54 0.6Q71.19 0.6 69.49-1.75 67.79-4.1 67.79-7.9L67.79-7.9Q67.79-9.25 67.99-11 68.19-12.75 68.49-14.35L68.49-14.35Q69.64-20.2 72.34-23.3 75.04-26.4 79.29-26.4L79.29-26.4Q81.54-26.4 83.22-25.2 84.89-24 85.14-21.6L85.14-21.6 85.64-21.6 88.74-37 92.44-37 85.69-3.2 88.89-3.2 88.24 0ZM75.99-2.7L75.99-2.7Q77.44-2.7 78.54-3.33 79.64-3.95 80.64-5.2L80.64-5.2Q81.64-6.45 82.44-7.98 83.24-9.5 83.49-10.8L83.49-10.8 84.89-17.8Q85.04-18.65 84.77-19.6 84.49-20.55 83.84-21.33 83.19-22.1 82.17-22.63 81.14-23.15 79.84-23.15L79.84-23.15Q76.99-23.15 75.27-21.38 73.54-19.6 72.84-16.25L72.84-16.25 71.69-10.45Q71.54-9.75 71.52-9.1 71.49-8.45 71.49-7.95L71.49-7.95Q71.49-5.2 72.69-3.95 73.89-2.7 75.99-2.7ZM102.84 0.6L102.84 0.6Q98.49 0.6 96.37-1.88 94.24-4.35 94.24-8.35L94.24-8.35Q94.24-9.65 94.44-11.35 94.64-13.05 94.94-14.55L94.94-14.55Q96.09-20.3 99.14-23.35 102.19-26.4 106.69-26.4L106.69-26.4Q108.29-26.4 109.69-25.98 111.09-25.55 112.12-24.7 113.14-23.85 113.74-22.58 114.34-21.3 114.34-19.55L114.34-19.55Q114.34-15.15 110.32-13.2 106.29-11.25 98.24-11.1L98.24-11.1Q97.99-10.15 97.97-9.53 97.94-8.9 97.94-8.4L97.94-8.4Q97.94-5.4 99.27-4.03 100.59-2.65 103.09-2.65L103.09-2.65Q105.54-2.65 107.34-3.8 109.14-4.95 110.34-6.85L110.34-6.85 112.69-4.75Q111.14-2.2 108.57-0.8 105.99 0.6 102.84 0.6ZM106.34-23.25L106.34-23.25Q103.49-23.25 101.74-21.5 99.99-19.75 99.29-16.45L99.29-16.45 98.79-14Q102.24-14.15 104.52-14.5 106.79-14.85 108.14-15.45 109.49-16.05 110.04-17 110.59-17.95 110.59-19.3L110.59-19.3Q110.59-20.5 110.24-21.25 109.89-22 109.29-22.45 108.69-22.9 107.92-23.08 107.14-23.25 106.34-23.25ZM138.89 0.6L138.89 0.6Q136.14 0.6 134.14-0.28 132.14-1.15 130.84-2.7 129.54-4.25 128.91-6.35 128.29-8.45 128.29-10.95L128.29-10.95Q128.29-11.95 128.39-13.13 128.49-14.3 128.66-15.53 128.84-16.75 129.06-17.9 129.29-19.05 129.49-20.05L129.49-20.05Q130.24-23.65 131.46-26.5 132.69-29.35 134.51-31.35 136.34-33.35 138.74-34.43 141.14-35.5 144.19-35.5L144.19-35.5Q146.34-35.5 148.01-34.93 149.69-34.35 150.96-33.3 152.24-32.25 153.06-30.8 153.89-29.35 154.29-27.65L154.29-27.65 150.74-26.1Q150.29-29 148.61-30.55 146.94-32.1 143.84-32.1L143.84-32.1Q139.59-32.1 137.26-29.3 134.94-26.5 133.94-21.4L133.94-21.4 132.64-14.9Q132.39-13.75 132.31-12.8 132.24-11.85 132.24-11.05L132.24-11.05Q132.24-7.15 133.91-4.98 135.59-2.8 139.24-2.8L139.24-2.8Q142.54-2.8 144.64-4.5 146.74-6.2 147.99-9.35L147.99-9.35 151.19-7.75Q149.24-3.85 146.21-1.63 143.19 0.6 138.89 0.6ZM163.48 0.6L163.48 0.6Q159.13 0.6 157.01-1.88 154.88-4.35 154.88-8.35L154.88-8.35Q154.88-9.65 155.08-11.35 155.28-13.05 155.58-14.55L155.58-14.55Q156.73-20.3 159.78-23.35 162.83-26.4 167.33-26.4L167.33-26.4Q168.93-26.4 170.33-25.98 171.73-25.55 172.76-24.7 173.78-23.85 174.38-22.58 174.98-21.3 174.98-19.55L174.98-19.55Q174.98-15.15 170.96-13.2 166.93-11.25 158.88-11.1L158.88-11.1Q158.63-10.15 158.61-9.53 158.58-8.9 158.58-8.4L158.58-8.4Q158.58-5.4 159.91-4.03 161.23-2.65 163.73-2.65L163.73-2.65Q166.18-2.65 167.98-3.8 169.78-4.95 170.98-6.85L170.98-6.85 173.33-4.75Q171.78-2.2 169.21-0.8 166.63 0.6 163.48 0.6ZM166.98-23.25L166.98-23.25Q164.13-23.25 162.38-21.5 160.63-19.75 159.93-16.45L159.93-16.45 159.43-14Q162.88-14.15 165.16-14.5 167.43-14.85 168.78-15.45 170.13-16.05 170.68-17 171.23-17.95 171.23-19.3L171.23-19.3Q171.23-20.5 170.88-21.25 170.53-22 169.93-22.45 169.33-22.9 168.56-23.08 167.78-23.25 166.98-23.25ZM181.13 0L177.43 0 182.58-25.8 186.28-25.8 185.28-20.75 185.78-20.75Q186.88-23.65 188.76-25.03 190.63-26.4 193.18-26.4L193.18-26.4Q195.93-26.4 197.36-24.65 198.78-22.9 198.78-19.7L198.78-19.7Q198.78-18.9 198.66-18 198.53-17.1 198.28-16L198.28-16 195.73-3.2 198.93-3.2 198.28 0 194.38 0Q191.93 0 191.93-2.35L191.93-2.35Q191.93-2.75 191.98-3.1 192.03-3.45 192.13-3.85L192.13-3.85 194.58-16.1Q194.98-18 194.98-19.4L194.98-19.4Q194.98-21.4 194.06-22.25 193.13-23.1 191.53-23.1L191.53-23.1Q188.68-23.1 186.98-21.05L186.98-21.05Q185.93-19.75 185.16-18.07 184.38-16.4 184.13-15L184.13-15 181.13 0ZM211.88 0L206.58 0Q204.08 0 204.08-2.25L204.08-2.25Q204.08-2.65 204.13-3 204.18-3.35 204.28-3.75L204.28-3.75 208.03-22.6 204.63-22.6 205.28-25.8 207.08-25.8Q208.28-25.8 208.68-26.2 209.08-26.6 209.33-27.9L209.33-27.9 210.33-32.9 213.83-32.9 212.38-25.8 217.28-25.8 216.63-22.6 211.73-22.6 207.88-3.2 212.53-3.2 211.88 0ZM221.28 0L217.58 0 222.73-25.8 226.43-25.8 225.43-20.75 225.93-20.75Q227.83-25.8 232.63-25.8L232.63-25.8 234.38-25.8 233.63-22 231.43-22Q228.43-22 226.7-20.28 224.98-18.55 224.38-15.45L224.38-15.45 221.28 0ZM243.17 0.6L243.17 0.6Q238.82 0.6 236.7-1.88 234.57-4.35 234.57-8.35L234.57-8.35Q234.57-9.65 234.77-11.35 234.97-13.05 235.27-14.55L235.27-14.55Q236.42-20.3 239.47-23.35 242.52-26.4 247.02-26.4L247.02-26.4Q248.62-26.4 250.02-25.98 251.42-25.55 252.45-24.7 253.47-23.85 254.07-22.58 254.67-21.3 254.67-19.55L254.67-19.55Q254.67-15.15 250.65-13.2 246.62-11.25 238.57-11.1L238.57-11.1Q238.32-10.15 238.3-9.53 238.27-8.9 238.27-8.4L238.27-8.4Q238.27-5.4 239.6-4.03 240.92-2.65 243.42-2.65L243.42-2.65Q245.87-2.65 247.67-3.8 249.47-4.95 250.67-6.85L250.67-6.85 253.02-4.75Q251.47-2.2 248.9-0.8 246.32 0.6 243.17 0.6ZM246.67-23.25L246.67-23.25Q243.82-23.25 242.07-21.5 240.32-19.75 239.62-16.45L239.62-16.45 239.12-14Q242.57-14.15 244.85-14.5 247.12-14.85 248.47-15.45 249.82-16.05 250.37-17 250.92-17.95 250.92-19.3L250.92-19.3Q250.92-20.5 250.57-21.25 250.22-22 249.62-22.45 249.02-22.9 248.25-23.08 247.47-23.25 246.67-23.25Z" opacity="1" transform="matrix(1,0,0,1,0,0)" fill="black" class="slogan-text-1" id="SvgjsPath1027" stroke-width="7" stroke="black" stroke-linejoin="round"></path></svg></g></svg></g></svg></g></svg></g><g></g></svg></g></svg></g></svg></g></mask><g transform="matrix(1,0,0,1,118.15254926919933,37.08)"><svg viewBox="0 0 159.21490146160133 173.04" height="173.04" width="159.21490146160133"><g><svg viewBox="0 0 159.21490146160133 173.04" height="173.04" width="159.21490146160133"><g><svg viewBox="0 0 224.0890650283019 243.54737814443365" height="173.04" width="159.21490146160133"><g><svg viewBox="0 0 224.0890650283019 243.54737814443365" height="243.54737814443365" width="224.0890650283019"><g id="textblocktransform"><svg viewBox="0 0 224.0890650283019 243.54737814443365" height="243.54737814443365" width="224.0890650283019" id="textblock"><g><svg viewBox="0 0 224.0890650283019 171.9706128" height="171.9706128" width="224.0890650283019"><g transform="matrix(1,0,0,1,0,0)"><svg width="224.0890650283019" viewBox="-1.9 -39.4 56.25 43.4" height="171.9706128" data-palette-color="#030303"><path d="M14.85-35.4L14.85-35.4 14.85-34.4Q13.15-34.35 12.28-34.02 11.4-33.7 11.1-32.83 10.8-31.95 10.8-30.1L10.8-30.1 10.8-5.3Q10.8-3.5 11.1-2.6 11.4-1.7 12.28-1.4 13.15-1.1 14.85-1L14.85-1 14.85 0Q13.7-0.1 11.98-0.13 10.25-0.15 8.5-0.15L8.5-0.15Q6.55-0.15 4.85-0.13 3.15-0.1 2.1 0L2.1 0 2.1-1Q3.8-1.1 4.67-1.4 5.55-1.7 5.85-2.6 6.15-3.5 6.15-5.3L6.15-5.3 6.15-30.1Q6.15-31.95 5.85-32.83 5.55-33.7 4.67-34.02 3.8-34.35 2.1-34.4L2.1-34.4 2.1-35.4Q3.15-35.35 4.85-35.3 6.55-35.25 8.5-35.25L8.5-35.25Q10.25-35.25 11.98-35.3 13.7-35.35 14.85-35.4ZM32.7-35.4L32.7-35.4Q41.65-35.4 46-30.93 50.35-26.45 50.35-18.1L50.35-18.1Q50.35-12.65 48.22-8.58 46.1-4.5 42.05-2.25 38 0 32.25 0L32.25 0Q31.15 0 29-0.08 26.85-0.15 25.25-0.15L25.25-0.15Q23.5-0.15 21.8-0.13 20.1-0.1 19.05 0L19.05 0 19.05-1Q20.75-1.1 21.62-1.4 22.5-1.7 22.8-2.6 23.1-3.5 23.1-5.3L23.1-5.3 23.1-30.1Q23.1-31.95 22.8-32.83 22.5-33.7 21.62-34.02 20.75-34.35 19.05-34.4L19.05-34.4 19.05-35.4Q20.1-35.35 21.8-35.27 23.5-35.2 25.15-35.25L25.15-35.25Q26.9-35.3 29.1-35.35 31.3-35.4 32.7-35.4ZM31.45-34.5L31.45-34.5Q29.15-34.5 28.45-33.65 27.75-32.8 27.75-30.2L27.75-30.2 27.75-5.2Q27.75-2.6 28.47-1.75 29.2-0.9 31.5-0.9L31.5-0.9Q36.95-0.9 39.95-2.88 42.95-4.85 44.15-8.65 45.35-12.45 45.35-17.9L45.35-17.9Q45.35-26.3 42.27-30.4 39.2-34.5 31.45-34.5Z" opacity="1" transform="matrix(1,0,0,1,0,0)" fill="#ffffff" class="wordmark-text-0" data-fill-palette-color="primary" id="text-0"></path></svg></g></svg></g><g transform="matrix(1,0,0,1,3.5,205.86622500077823)"><svg viewBox="0 0 217.0890650283019 37.681153143655436" height="37.681153143655436" width="217.0890650283019"><g transform="matrix(1,0,0,1,0,0)"><svg width="217.0890650283019" viewBox="0.75 -41 257.91999999999996 45.6" height="37.681153143655436" data-palette-color="#030303"><path d="M27.6-31.55L18.1-31.55 11.8 0 7.95 0 14.25-31.55 4.75-31.55 5.45-34.9 28.3-34.9 27.6-31.55ZM28.35 0L24.65 0 29.8-25.8 33.5-25.8 32.5-20.75 33-20.75Q34.9-25.8 39.7-25.8L39.7-25.8 41.45-25.8 40.7-22 38.5-22Q35.5-22 33.77-20.28 32.05-18.55 31.45-15.45L31.45-15.45 28.35 0ZM62.1 0L58.3 0Q57.1 0 56.42-0.6 55.75-1.2 55.75-2.35L55.75-2.35Q55.75-2.75 55.8-3.1 55.85-3.45 55.95-3.85L55.95-3.85 56.3-5.55 55.8-5.55Q53.5 0.6 48.4 0.6L48.4 0.6Q45.05 0.6 43.35-1.75 41.65-4.1 41.65-7.9L41.65-7.9Q41.65-9.25 41.85-11 42.05-12.75 42.35-14.35L42.35-14.35Q43.5-20.2 46.2-23.3 48.9-26.4 53.15-26.4L53.15-26.4Q55.4-26.4 57.07-25.2 58.75-24 59-21.6L59-21.6 59.5-21.6 60.35-25.8 64.05-25.8 59.55-3.2 62.75-3.2 62.1 0ZM49.85-2.7L49.85-2.7Q51.3-2.7 52.4-3.33 53.5-3.95 54.5-5.2L54.5-5.2Q55.5-6.45 56.3-7.98 57.1-9.5 57.35-10.8L57.35-10.8 58.75-17.8Q58.9-18.65 58.62-19.6 58.35-20.55 57.7-21.33 57.05-22.1 56.02-22.63 55-23.15 53.7-23.15L53.7-23.15Q50.85-23.15 49.12-21.38 47.4-19.6 46.7-16.25L46.7-16.25 45.55-10.45Q45.4-9.75 45.37-9.1 45.35-8.45 45.35-7.95L45.35-7.95Q45.35-5.2 46.55-3.95 47.75-2.7 49.85-2.7ZM88.24 0L84.44 0Q83.24 0 82.57-0.6 81.89-1.2 81.89-2.35L81.89-2.35Q81.89-2.75 81.94-3.1 81.99-3.45 82.09-3.85L82.09-3.85 82.44-5.55 81.94-5.55Q79.64 0.6 74.54 0.6L74.54 0.6Q71.19 0.6 69.49-1.75 67.79-4.1 67.79-7.9L67.79-7.9Q67.79-9.25 67.99-11 68.19-12.75 68.49-14.35L68.49-14.35Q69.64-20.2 72.34-23.3 75.04-26.4 79.29-26.4L79.29-26.4Q81.54-26.4 83.22-25.2 84.89-24 85.14-21.6L85.14-21.6 85.64-21.6 88.74-37 92.44-37 85.69-3.2 88.89-3.2 88.24 0ZM75.99-2.7L75.99-2.7Q77.44-2.7 78.54-3.33 79.64-3.95 80.64-5.2L80.64-5.2Q81.64-6.45 82.44-7.98 83.24-9.5 83.49-10.8L83.49-10.8 84.89-17.8Q85.04-18.65 84.77-19.6 84.49-20.55 83.84-21.33 83.19-22.1 82.17-22.63 81.14-23.15 79.84-23.15L79.84-23.15Q76.99-23.15 75.27-21.38 73.54-19.6 72.84-16.25L72.84-16.25 71.69-10.45Q71.54-9.75 71.52-9.1 71.49-8.45 71.49-7.95L71.49-7.95Q71.49-5.2 72.69-3.95 73.89-2.7 75.99-2.7ZM102.84 0.6L102.84 0.6Q98.49 0.6 96.37-1.88 94.24-4.35 94.24-8.35L94.24-8.35Q94.24-9.65 94.44-11.35 94.64-13.05 94.94-14.55L94.94-14.55Q96.09-20.3 99.14-23.35 102.19-26.4 106.69-26.4L106.69-26.4Q108.29-26.4 109.69-25.98 111.09-25.55 112.12-24.7 113.14-23.85 113.74-22.58 114.34-21.3 114.34-19.55L114.34-19.55Q114.34-15.15 110.32-13.2 106.29-11.25 98.24-11.1L98.24-11.1Q97.99-10.15 97.97-9.53 97.94-8.9 97.94-8.4L97.94-8.4Q97.94-5.4 99.27-4.03 100.59-2.65 103.09-2.65L103.09-2.65Q105.54-2.65 107.34-3.8 109.14-4.95 110.34-6.85L110.34-6.85 112.69-4.75Q111.14-2.2 108.57-0.8 105.99 0.6 102.84 0.6ZM106.34-23.25L106.34-23.25Q103.49-23.25 101.74-21.5 99.99-19.75 99.29-16.45L99.29-16.45 98.79-14Q102.24-14.15 104.52-14.5 106.79-14.85 108.14-15.45 109.49-16.05 110.04-17 110.59-17.95 110.59-19.3L110.59-19.3Q110.59-20.5 110.24-21.25 109.89-22 109.29-22.45 108.69-22.9 107.92-23.08 107.14-23.25 106.34-23.25ZM138.89 0.6L138.89 0.6Q136.14 0.6 134.14-0.28 132.14-1.15 130.84-2.7 129.54-4.25 128.91-6.35 128.29-8.45 128.29-10.95L128.29-10.95Q128.29-11.95 128.39-13.13 128.49-14.3 128.66-15.53 128.84-16.75 129.06-17.9 129.29-19.05 129.49-20.05L129.49-20.05Q130.24-23.65 131.46-26.5 132.69-29.35 134.51-31.35 136.34-33.35 138.74-34.43 141.14-35.5 144.19-35.5L144.19-35.5Q146.34-35.5 148.01-34.93 149.69-34.35 150.96-33.3 152.24-32.25 153.06-30.8 153.89-29.35 154.29-27.65L154.29-27.65 150.74-26.1Q150.29-29 148.61-30.55 146.94-32.1 143.84-32.1L143.84-32.1Q139.59-32.1 137.26-29.3 134.94-26.5 133.94-21.4L133.94-21.4 132.64-14.9Q132.39-13.75 132.31-12.8 132.24-11.85 132.24-11.05L132.24-11.05Q132.24-7.15 133.91-4.98 135.59-2.8 139.24-2.8L139.24-2.8Q142.54-2.8 144.64-4.5 146.74-6.2 147.99-9.35L147.99-9.35 151.19-7.75Q149.24-3.85 146.21-1.63 143.19 0.6 138.89 0.6ZM163.48 0.6L163.48 0.6Q159.13 0.6 157.01-1.88 154.88-4.35 154.88-8.35L154.88-8.35Q154.88-9.65 155.08-11.35 155.28-13.05 155.58-14.55L155.58-14.55Q156.73-20.3 159.78-23.35 162.83-26.4 167.33-26.4L167.33-26.4Q168.93-26.4 170.33-25.98 171.73-25.55 172.76-24.7 173.78-23.85 174.38-22.58 174.98-21.3 174.98-19.55L174.98-19.55Q174.98-15.15 170.96-13.2 166.93-11.25 158.88-11.1L158.88-11.1Q158.63-10.15 158.61-9.53 158.58-8.9 158.58-8.4L158.58-8.4Q158.58-5.4 159.91-4.03 161.23-2.65 163.73-2.65L163.73-2.65Q166.18-2.65 167.98-3.8 169.78-4.95 170.98-6.85L170.98-6.85 173.33-4.75Q171.78-2.2 169.21-0.8 166.63 0.6 163.48 0.6ZM166.98-23.25L166.98-23.25Q164.13-23.25 162.38-21.5 160.63-19.75 159.93-16.45L159.93-16.45 159.43-14Q162.88-14.15 165.16-14.5 167.43-14.85 168.78-15.45 170.13-16.05 170.68-17 171.23-17.95 171.23-19.3L171.23-19.3Q171.23-20.5 170.88-21.25 170.53-22 169.93-22.45 169.33-22.9 168.56-23.08 167.78-23.25 166.98-23.25ZM181.13 0L177.43 0 182.58-25.8 186.28-25.8 185.28-20.75 185.78-20.75Q186.88-23.65 188.76-25.03 190.63-26.4 193.18-26.4L193.18-26.4Q195.93-26.4 197.36-24.65 198.78-22.9 198.78-19.7L198.78-19.7Q198.78-18.9 198.66-18 198.53-17.1 198.28-16L198.28-16 195.73-3.2 198.93-3.2 198.28 0 194.38 0Q191.93 0 191.93-2.35L191.93-2.35Q191.93-2.75 191.98-3.1 192.03-3.45 192.13-3.85L192.13-3.85 194.58-16.1Q194.98-18 194.98-19.4L194.98-19.4Q194.98-21.4 194.06-22.25 193.13-23.1 191.53-23.1L191.53-23.1Q188.68-23.1 186.98-21.05L186.98-21.05Q185.93-19.75 185.16-18.07 184.38-16.4 184.13-15L184.13-15 181.13 0ZM211.88 0L206.58 0Q204.08 0 204.08-2.25L204.08-2.25Q204.08-2.65 204.13-3 204.18-3.35 204.28-3.75L204.28-3.75 208.03-22.6 204.63-22.6 205.28-25.8 207.08-25.8Q208.28-25.8 208.68-26.2 209.08-26.6 209.33-27.9L209.33-27.9 210.33-32.9 213.83-32.9 212.38-25.8 217.28-25.8 216.63-22.6 211.73-22.6 207.88-3.2 212.53-3.2 211.88 0ZM221.28 0L217.58 0 222.73-25.8 226.43-25.8 225.43-20.75 225.93-20.75Q227.83-25.8 232.63-25.8L232.63-25.8 234.38-25.8 233.63-22 231.43-22Q228.43-22 226.7-20.28 224.98-18.55 224.38-15.45L224.38-15.45 221.28 0ZM243.17 0.6L243.17 0.6Q238.82 0.6 236.7-1.88 234.57-4.35 234.57-8.35L234.57-8.35Q234.57-9.65 234.77-11.35 234.97-13.05 235.27-14.55L235.27-14.55Q236.42-20.3 239.47-23.35 242.52-26.4 247.02-26.4L247.02-26.4Q248.62-26.4 250.02-25.98 251.42-25.55 252.45-24.7 253.47-23.85 254.07-22.58 254.67-21.3 254.67-19.55L254.67-19.55Q254.67-15.15 250.65-13.2 246.62-11.25 238.57-11.1L238.57-11.1Q238.32-10.15 238.3-9.53 238.27-8.9 238.27-8.4L238.27-8.4Q238.27-5.4 239.6-4.03 240.92-2.65 243.42-2.65L243.42-2.65Q245.87-2.65 247.67-3.8 249.47-4.95 250.67-6.85L250.67-6.85 253.02-4.75Q251.47-2.2 248.9-0.8 246.32 0.6 243.17 0.6ZM246.67-23.25L246.67-23.25Q243.82-23.25 242.07-21.5 240.32-19.75 239.62-16.45L239.62-16.45 239.12-14Q242.57-14.15 244.85-14.5 247.12-14.85 248.47-15.45 249.82-16.05 250.37-17 250.92-17.95 250.92-19.3L250.92-19.3Q250.92-20.5 250.57-21.25 250.22-22 249.62-22.45 249.02-22.9 248.25-23.08 247.47-23.25 246.67-23.25Z" opacity="1" transform="matrix(1,0,0,1,0,0)" fill="#ffffff" class="slogan-text-1" data-fill-palette-color="secondary" id="text-1"></path></svg></g></svg></g></svg></g></svg></g><g></g></svg></g></svg></g></svg></g><g mask="url(#786b379f-df98-497e-ad1f-b78db51f6ba3)"><g transform="matrix(5.239978809138906, 0, 0, 5.239978809138906, 69.76041763975938, 1)"><svg xmlns="http://www.w3.org/2000/svg" xmlns:xlink="http://www.w3.org/1999/xlink" version="1.1" x="0" y="0" viewBox="0.572 1.603 48.855 46.794082367728905" enable-background="new 0 0 50 50" xml:space="preserve" height="46.794082367728905" width="48.855" class="icon-none" data-fill-palette-color="accent" id="none"><g fill="#030303" data-fill-palette-color="accent"><g fill="#030303" data-fill-palette-color="accent"><g fill="#030303" data-fill-palette-color="accent"><line fill="#ffffff" x1="42.187" y1="30.881" x2="16.181" y2="39.004" data-fill-palette-color="accent"></line><polygon fill="#ffffff" points="41.73,29.426 15.726,37.543 16.637,40.461 42.643,32.338    " data-fill-palette-color="accent"></polygon></g><g fill="#030303" data-fill-palette-color="accent"><path fill="#ffffff" d="M18.572 42.535c0.061 0.605-0.122 1.195-0.513 1.664-0.388 0.471-0.934 0.756-1.539 0.814-1.254 0.119-2.364-0.807-2.485-2.057-0.055-0.605 0.129-1.199 0.516-1.666 0.388-0.469 0.935-0.758 1.542-0.813 0.607-0.059 1.196 0.123 1.666 0.514C18.229 41.379 18.515 41.926 18.572 42.535zM15.808 37.434c-1.421 0.137-2.701 0.816-3.609 1.91-0.905 1.096-1.334 2.48-1.201 3.9 0.276 2.928 2.881 5.082 5.807 4.811 1.42-0.133 2.7-0.811 3.605-1.908 0.913-1.098 1.338-2.482 1.204-3.898-0.13-1.416-0.811-2.699-1.907-3.607C18.611 37.732 17.226 37.303 15.808 37.434z" data-fill-palette-color="accent"></path></g><g fill="#030303" data-fill-palette-color="accent"><line fill="#ffffff" x1="13.436" y1="30.992" x2="39.554" y2="39.439" data-fill-palette-color="accent"></line><rect x="12.773" y="33.689" transform="matrix(-0.9514 -0.3078 0.3078 -0.9514 40.8641 76.8801)" fill="#ffffff" width="27.446" height="3.055" data-fill-palette-color="accent"></rect></g><g fill="#030303" data-fill-palette-color="accent"><path fill="#ffffff" d="M32.707 42.547c-0.14 1.416 0.282 2.803 1.186 3.902 0.902 1.1 2.179 1.783 3.599 1.922 2.926 0.289 5.538-1.857 5.828-4.781 0.286-2.928-1.862-5.541-4.786-5.83-1.416-0.137-2.801 0.281-3.903 1.188C33.529 39.846 32.847 41.129 32.707 42.547zM38.236 40.795c1.249 0.127 2.167 1.244 2.044 2.494-0.123 1.248-1.241 2.168-2.491 2.049-0.604-0.063-1.15-0.357-1.538-0.824-0.388-0.473-0.565-1.068-0.505-1.674 0.058-0.604 0.353-1.148 0.822-1.537C37.034 40.918 37.63 40.738 38.236 40.795z" data-fill-palette-color="accent"></path></g><g fill="#030303" data-fill-palette-color="accent"><polygon fill="#ffffff" points="11.115,19.867 5.497,2.681 5.155,1.64 4.058,1.63 0.6,1.603 0.572,4.656 4.033,4.685 2.594,3.63      8.214,20.812    " data-fill-palette-color="accent"></polygon></g><g fill="#030303" data-fill-palette-color="accent"><polygon fill="#ffffff" points="17.158,26.744 37.898,26.744 40.767,19.382 15.07,19.474    " data-fill-palette-color="accent"></polygon><path fill="#ffffff" d="M5.756 13.544L12.45 32.75l29.955-0.223 7.022-18.983H5.756zM40.365 28.826l-0.379 0.973h-1.044H16.009h-1.149l-0.318-1.104L11.579 18.38l-0.558-1.939 2.021-0.008 29.954-0.109 2.243-0.01-0.815 2.088L40.365 28.826z" data-fill-palette-color="accent"></path></g></g><g fill="#030303" data-fill-palette-color="accent"><path fill-rule="evenodd" clip-rule="evenodd" fill="#ffffff" d="M32.577 11.763h3.868L32.577 8.57l-3.866-3.191L24.847 8.57l-3.865 3.193h3.81H32.577z" data-fill-palette-color="accent"></path></g></g></svg></g></g></svg></g><defs></defs></svg><rect width="395.52" height="247.2" fill="none" stroke="none" visibility="hidden"></rect></g></svg></g></svg>