<svg xmlns="http://www.w3.org/2000/svg" version="1.1" xmlns:xlink="http://www.w3.org/1999/xlink" xmlns:svgjs="http://svgjs.dev/svgjs" width="1500" height="935" viewBox="0 0 1500 935"><g transform="matrix(1,0,0,1,-0.9090909090909918,0.3785425101214628)"><svg viewBox="0 0 396 247" data-background-color="#f9f9f9" preserveAspectRatio="xMidYMid meet" height="935" width="1500" xmlns="http://www.w3.org/2000/svg" xmlns:xlink="http://www.w3.org/1999/xlink"><g id="tight-bounds" transform="matrix(1,0,0,1,0.2400000000000091,-0.09999999999999432)"><svg viewBox="0 0 395.52 247.2" height="247.2" width="395.52"><g><svg></svg></g><g><svg viewBox="0 0 395.52 247.2" height="247.2" width="395.52"><mask id="8f3d9559-cba3-428d-b5a0-a22829442510"><rect width="640" height="400" fill="white"></rect><g transform="matrix(1,0,0,1,91.76300303855362,3.433333333333323)"><svg viewBox="0 0 211.99399392289274 240.33333333333334" height="240.33333333333334" width="211.99399392289274"><g><svg viewBox="0 0 211.99399392289274 240.33333333333334" height="240.33333333333334" width="211.99399392289274"><g><svg viewBox="0 0 299.68879189375315 339.75116457621255" height="240.33333333333334" width="211.99399392289274"><g><svg viewBox="0 0 299.68879189375315 339.75116457621255" height="339.75116457621255" width="299.68879189375315"><g id="SvgjsG7402"><svg viewBox="0 0 299.68879189375315 339.75116457621255" height="339.75116457621255" width="299.68879189375315" id="SvgjsSvg7401"><g><svg viewBox="0 0 299.68879189375315 238.8480733333334" height="238.8480733333334" width="299.68879189375315"><g transform="matrix(1,0,0,1,0,0)"><svg width="299.68879189375315" viewBox="3.8099999999999996 -38.69 53.309999999999995 42.69" height="238.8480733333334" data-palette-color="#030303"><path d="M7.81 0L7.81-34.69 11.96-34.69 11.96 0 7.81 0ZM35.79-31.03L29.05-31.03 29.05-3.66 34.1-3.66Q35.2-3.66 35.92-3.69 36.64-3.71 37.88-3.83 39.11-3.96 40-4.2 40.89-4.44 42.03-4.91 43.16-5.37 44.04-6.03 44.92-6.69 45.8-7.71 46.68-8.74 47.34-10.03L47.34-10.03Q48.95-13.13 48.95-17.58L48.95-17.58Q48.95-20.65 48.06-23.13 47.17-25.61 45.69-27.16 44.21-28.71 42.54-29.61 40.87-30.52 39.04-30.83L39.04-30.83Q37.96-31.03 35.79-31.03L35.79-31.03ZM24.9-34.69L35.64-34.69Q39.01-34.69 41.77-34.02 44.53-33.35 46.4-32.13 48.26-30.91 49.61-29.37 50.95-27.83 51.69-25.94 52.44-24.05 52.78-22.22 53.12-20.39 53.12-18.41L53.12-18.41Q53.12-16.14 52.78-14.04 52.44-11.94 51.6-9.77 50.75-7.59 49.45-5.87 48.14-4.15 46.07-2.77 43.99-1.39 41.35-0.73L41.35-0.73Q39.99-0.39 38.3-0.22 36.62-0.05 35.52-0.02 34.42 0 32.42 0L32.42 0 24.9 0 24.9-34.69Z" opacity="1" transform="matrix(1,0,0,1,0,0)" fill="black" class="wordmark-text-0" id="SvgjsPath7400" stroke-width="7" stroke="black" stroke-linejoin="round"></path></svg></g></svg></g><g transform="matrix(1,0,0,1,3.5,285.7673160179076)"><svg viewBox="0 0 292.68879189375315 53.98384855830496" height="53.98384855830496" width="292.68879189375315"><g transform="matrix(1,0,0,1,0,0)"><svg width="292.68879189375315" viewBox="-4 -39.5 234.92 44.15" height="53.98384855830496" data-palette-color="#030303"><path d="M8.5 0L8.5-32.5 0-32.5 0-35 20.1-35 20.1-32.5 11.3-32.5 11.3 0 8.5 0ZM18.05 0L18.05-25.05 20.85-25.05 20.7-23.3Q23.05-25.5 26.85-25.5L26.85-25.5Q28.2-25.5 30.55-25.05L30.55-25.05 29.8-22.5Q28.2-23 26.45-23L26.45-23Q24.15-23 22.5-22.15 20.85-21.3 20.85-19.6L20.85-19.6 20.85 0 18.05 0ZM47.64 0Q42.24 0.55 39.84 0.55L39.84 0.55Q34.59 0.55 31.49-1.4 28.39-3.35 28.39-8.45L28.39-8.45 28.39-12.6Q28.39-17.55 31.84-19.25L31.84-19.25Q33.49-20.1 36.05-20.1L36.05-20.1Q38.39-20.1 40.8-19.33 43.2-18.55 44.84-17.3L44.84-17.3Q44.84-20.05 43.24-21.68 41.64-23.3 37.09-23.3L37.09-23.3 37.24-25.45Q42.05-25.45 44.32-23.93 46.59-22.4 47.12-20.3 47.64-18.2 47.64-14.9L47.64-14.9 47.64 0ZM44.84-15.15Q42.8-16.1 40.47-16.8 38.14-17.5 36.2-17.5L36.2-17.5Q31.14-17.5 31.14-12.45L31.14-12.45 31.14-8.1Q31.14-4.85 33.39-3.38 35.64-1.9 39.8-1.9L39.8-1.9Q41.95-1.9 44.84-2.3L44.84-2.3 44.84-15.15ZM53.34-17.3Q53.34-22.55 57.59-24.5L57.59-24.5Q59.64-25.45 62.49-25.45L62.49-25.45Q64.34-25.45 66.07-25 67.79-24.55 68.99-23.7L68.99-23.7 68.99-35 71.79-35 71.79 0 69.04 0.25Q65.79 0.6 63.94 0.6L63.94 0.6Q62.09 0.6 60.47 0.25 58.84-0.1 57.24-0.9L57.24-0.9Q55.44-1.8 54.39-3.55 53.34-5.3 53.34-7.85L53.34-7.85 53.34-17.3ZM68.99-21.25Q67.64-22 65.89-22.48 64.14-22.95 62.44-22.95L62.44-22.95Q59.64-22.95 57.87-21.58 56.09-20.2 56.09-17.15L56.09-17.15 56.09-7.8Q56.09-1.95 64.14-1.95L64.14-1.95Q66.04-1.95 68.99-2.4L68.99-2.4 68.99-21.25ZM91.94-1.75Q90.14-0.6 87.84 0 85.54 0.6 83.24 0.6L83.24 0.6Q79.54 0.6 77.36-1.23 75.19-3.05 75.19-6.7L75.19-6.7 75.19-16.95Q75.19-21 77.72-23.25 80.24-25.5 84.39-25.5L84.39-25.5Q88.54-25.5 90.86-23.28 93.19-21.05 93.19-17.1L93.19-17.1 93.19-10.6 77.99-9.75 77.99-6.7Q77.99-4.3 79.54-3.1 81.09-1.9 83.59-1.9L83.59-1.9Q87.09-1.9 90.84-3.9L90.84-3.9 91.94-1.75ZM90.39-17.45Q90.39-20.55 88.44-21.83 86.49-23.1 84.34-23.1L84.34-23.1Q81.59-23.1 79.79-21.6 77.99-20.1 77.99-16.9L77.99-16.9 77.99-12.5 90.39-13.1 90.39-17.45ZM130.39-1.15Q125.94 0.5 122.09 0.5L122.09 0.5Q117.74 0.5 115.04-1.8 112.34-4.1 112.34-9.15L112.34-9.15 112.34-25.2Q112.34-29 113.41-30.95 114.49-32.9 116.69-34.25L116.69-34.25Q118.89-35.5 122.09-35.5L122.09-35.5Q125.99-35.5 129.14-33.85L129.14-33.85 128.34-31.95Q125.49-33 122.94-33L122.94-33Q119.89-33 117.51-31.5 115.14-30 115.14-25.65L115.14-25.65 115.14-9.25Q115.14-5.8 116.94-3.93 118.74-2.05 122.34-2.05L122.34-2.05Q125.49-2.05 129.79-3.5L129.79-3.5 130.39-1.15ZM149.33-1.75Q147.53-0.6 145.23 0 142.93 0.6 140.63 0.6L140.63 0.6Q136.93 0.6 134.76-1.23 132.58-3.05 132.58-6.7L132.58-6.7 132.58-16.95Q132.58-21 135.11-23.25 137.63-25.5 141.78-25.5L141.78-25.5Q145.93-25.5 148.26-23.28 150.58-21.05 150.58-17.1L150.58-17.1 150.58-10.6 135.38-9.75 135.38-6.7Q135.38-4.3 136.93-3.1 138.48-1.9 140.98-1.9L140.98-1.9Q144.48-1.9 148.23-3.9L148.23-3.9 149.33-1.75ZM147.78-17.45Q147.78-20.55 145.83-21.83 143.88-23.1 141.73-23.1L141.73-23.1Q138.98-23.1 137.18-21.6 135.38-20.1 135.38-16.9L135.38-16.9 135.38-12.5 147.78-13.1 147.78-17.45ZM171.43 0L171.43-17.15Q171.43-20.2 169.66-21.58 167.88-22.95 165.08-22.95L165.08-22.95Q163.38-22.95 161.63-22.48 159.88-22 158.53-21.25L158.53-21.25 158.53 0 155.73 0 155.73-25.05 158.53-25.05 158.33-23.35Q159.53-24.4 161.38-24.93 163.23-25.45 165.23-25.45L165.23-25.45Q167.98-25.45 169.93-24.55L169.93-24.55Q171.93-23.65 173.06-21.85 174.18-20.05 174.18-17.3L174.18-17.3 174.18 0 171.43 0ZM185.03 0.65Q182.23-0.15 180.98-1.9 179.73-3.65 179.73-6.6L179.73-6.6 179.73-35 182.53-35 182.53-25.05 188.53-25.05 187.33-22.4 182.53-22.4 182.53-6.6Q182.53-2.6 185.83-1.5L185.83-1.5 185.03 0.65ZM208.18-1.75Q206.38-0.6 204.08 0 201.78 0.6 199.48 0.6L199.48 0.6Q195.78 0.6 193.6-1.23 191.43-3.05 191.43-6.7L191.43-6.7 191.43-16.95Q191.43-21 193.95-23.25 196.48-25.5 200.63-25.5L200.63-25.5Q204.78-25.5 207.1-23.28 209.43-21.05 209.43-17.1L209.43-17.1 209.43-10.6 194.23-9.75 194.23-6.7Q194.23-4.3 195.78-3.1 197.33-1.9 199.83-1.9L199.83-1.9Q203.33-1.9 207.08-3.9L207.08-3.9 208.18-1.75ZM206.63-17.45Q206.63-20.55 204.68-21.83 202.73-23.1 200.58-23.1L200.58-23.1Q197.83-23.1 196.03-21.6 194.23-20.1 194.23-16.9L194.23-16.9 194.23-12.5 206.63-13.1 206.63-17.45ZM214.42 0L214.42-25.05 217.22-25.05 217.07-23.3Q219.42-25.5 223.22-25.5L223.22-25.5Q224.57-25.5 226.92-25.05L226.92-25.05 226.17-22.5Q224.57-23 222.82-23L222.82-23Q220.52-23 218.87-22.15 217.22-21.3 217.22-19.6L217.22-19.6 217.22 0 214.42 0Z" opacity="1" transform="matrix(1,0,0,1,0,0)" fill="black" class="slogan-text-1" id="SvgjsPath7399" stroke-width="7" stroke="black" stroke-linejoin="round"></path></svg></g></svg></g></svg></g></svg></g><g></g></svg></g></svg></g></svg></g></mask><g transform="matrix(1,0,0,1,91.76300303855362,3.433333333333323)"><svg viewBox="0 0 211.99399392289274 240.33333333333334" height="240.33333333333334" width="211.99399392289274"><g><svg viewBox="0 0 211.99399392289274 240.33333333333334" height="240.33333333333334" width="211.99399392289274"><g><svg viewBox="0 0 299.68879189375315 339.75116457621255" height="240.33333333333334" width="211.99399392289274"><g><svg viewBox="0 0 299.68879189375315 339.75116457621255" height="339.75116457621255" width="299.68879189375315"><g id="textblocktransform"><svg viewBox="0 0 299.68879189375315 339.75116457621255" height="339.75116457621255" width="299.68879189375315" id="textblock"><g><svg viewBox="0 0 299.68879189375315 238.8480733333334" height="238.8480733333334" width="299.68879189375315"><g transform="matrix(1,0,0,1,0,0)"><svg width="299.68879189375315" viewBox="3.8099999999999996 -38.69 53.309999999999995 42.69" height="238.8480733333334" data-palette-color="#030303"><path d="M7.81 0L7.81-34.69 11.96-34.69 11.96 0 7.81 0ZM35.79-31.03L29.05-31.03 29.05-3.66 34.1-3.66Q35.2-3.66 35.92-3.69 36.64-3.71 37.88-3.83 39.11-3.96 40-4.2 40.89-4.44 42.03-4.91 43.16-5.37 44.04-6.03 44.92-6.69 45.8-7.71 46.68-8.74 47.34-10.03L47.34-10.03Q48.95-13.13 48.95-17.58L48.95-17.58Q48.95-20.65 48.06-23.13 47.17-25.61 45.69-27.16 44.21-28.71 42.54-29.61 40.87-30.52 39.04-30.83L39.04-30.83Q37.96-31.03 35.79-31.03L35.79-31.03ZM24.9-34.69L35.64-34.69Q39.01-34.69 41.77-34.02 44.53-33.35 46.4-32.13 48.26-30.91 49.61-29.37 50.95-27.83 51.69-25.94 52.44-24.05 52.78-22.22 53.12-20.39 53.12-18.41L53.12-18.41Q53.12-16.14 52.78-14.04 52.44-11.94 51.6-9.77 50.75-7.59 49.45-5.87 48.14-4.15 46.07-2.77 43.99-1.39 41.35-0.73L41.35-0.73Q39.99-0.39 38.3-0.22 36.62-0.05 35.52-0.02 34.42 0 32.42 0L32.42 0 24.9 0 24.9-34.69Z" opacity="1" transform="matrix(1,0,0,1,0,0)" fill="#030303" class="wordmark-text-0" data-fill-palette-color="primary" id="text-0"></path></svg></g></svg></g><g transform="matrix(1,0,0,1,3.5,285.7673160179076)"><svg viewBox="0 0 292.68879189375315 53.98384855830496" height="53.98384855830496" width="292.68879189375315"><g transform="matrix(1,0,0,1,0,0)"><svg width="292.68879189375315" viewBox="-4 -39.5 234.92 44.15" height="53.98384855830496" data-palette-color="#030303"><path d="M8.5 0L8.5-32.5 0-32.5 0-35 20.1-35 20.1-32.5 11.3-32.5 11.3 0 8.5 0ZM18.05 0L18.05-25.05 20.85-25.05 20.7-23.3Q23.05-25.5 26.85-25.5L26.85-25.5Q28.2-25.5 30.55-25.05L30.55-25.05 29.8-22.5Q28.2-23 26.45-23L26.45-23Q24.15-23 22.5-22.15 20.85-21.3 20.85-19.6L20.85-19.6 20.85 0 18.05 0ZM47.64 0Q42.24 0.55 39.84 0.55L39.84 0.55Q34.59 0.55 31.49-1.4 28.39-3.35 28.39-8.45L28.39-8.45 28.39-12.6Q28.39-17.55 31.84-19.25L31.84-19.25Q33.49-20.1 36.05-20.1L36.05-20.1Q38.39-20.1 40.8-19.33 43.2-18.55 44.84-17.3L44.84-17.3Q44.84-20.05 43.24-21.68 41.64-23.3 37.09-23.3L37.09-23.3 37.24-25.45Q42.05-25.45 44.32-23.93 46.59-22.4 47.12-20.3 47.64-18.2 47.64-14.9L47.64-14.9 47.64 0ZM44.84-15.15Q42.8-16.1 40.47-16.8 38.14-17.5 36.2-17.5L36.2-17.5Q31.14-17.5 31.14-12.45L31.14-12.45 31.14-8.1Q31.14-4.85 33.39-3.38 35.64-1.9 39.8-1.9L39.8-1.9Q41.95-1.9 44.84-2.3L44.84-2.3 44.84-15.15ZM53.34-17.3Q53.34-22.55 57.59-24.5L57.59-24.5Q59.64-25.45 62.49-25.45L62.49-25.45Q64.34-25.45 66.07-25 67.79-24.55 68.99-23.7L68.99-23.7 68.99-35 71.79-35 71.79 0 69.04 0.25Q65.79 0.6 63.94 0.6L63.94 0.6Q62.09 0.6 60.47 0.25 58.84-0.1 57.24-0.9L57.24-0.9Q55.44-1.8 54.39-3.55 53.34-5.3 53.34-7.85L53.34-7.85 53.34-17.3ZM68.99-21.25Q67.64-22 65.89-22.48 64.14-22.95 62.44-22.95L62.44-22.95Q59.64-22.95 57.87-21.58 56.09-20.2 56.09-17.15L56.09-17.15 56.09-7.8Q56.09-1.95 64.14-1.95L64.14-1.95Q66.04-1.95 68.99-2.4L68.99-2.4 68.99-21.25ZM91.94-1.75Q90.14-0.6 87.84 0 85.54 0.6 83.24 0.6L83.24 0.6Q79.54 0.6 77.36-1.23 75.19-3.05 75.19-6.7L75.19-6.7 75.19-16.95Q75.19-21 77.72-23.25 80.24-25.5 84.39-25.5L84.39-25.5Q88.54-25.5 90.86-23.28 93.19-21.05 93.19-17.1L93.19-17.1 93.19-10.6 77.99-9.75 77.99-6.7Q77.99-4.3 79.54-3.1 81.09-1.9 83.59-1.9L83.59-1.9Q87.09-1.9 90.84-3.9L90.84-3.9 91.94-1.75ZM90.39-17.45Q90.39-20.55 88.44-21.83 86.49-23.1 84.34-23.1L84.34-23.1Q81.59-23.1 79.79-21.6 77.99-20.1 77.99-16.9L77.99-16.9 77.99-12.5 90.39-13.1 90.39-17.45ZM130.39-1.15Q125.94 0.5 122.09 0.5L122.09 0.5Q117.74 0.5 115.04-1.8 112.34-4.1 112.34-9.15L112.34-9.15 112.34-25.2Q112.34-29 113.41-30.95 114.49-32.9 116.69-34.25L116.69-34.25Q118.89-35.5 122.09-35.5L122.09-35.5Q125.99-35.5 129.14-33.85L129.14-33.85 128.34-31.95Q125.49-33 122.94-33L122.94-33Q119.89-33 117.51-31.5 115.14-30 115.14-25.65L115.14-25.65 115.14-9.25Q115.14-5.8 116.94-3.93 118.74-2.05 122.34-2.05L122.34-2.05Q125.49-2.05 129.79-3.5L129.79-3.5 130.39-1.15ZM149.33-1.75Q147.53-0.6 145.23 0 142.93 0.6 140.63 0.6L140.63 0.6Q136.93 0.6 134.76-1.23 132.58-3.05 132.58-6.7L132.58-6.7 132.58-16.95Q132.58-21 135.11-23.25 137.63-25.5 141.78-25.5L141.78-25.5Q145.93-25.5 148.26-23.28 150.58-21.05 150.58-17.1L150.58-17.1 150.58-10.6 135.38-9.75 135.38-6.7Q135.38-4.3 136.93-3.1 138.48-1.9 140.98-1.9L140.98-1.9Q144.48-1.9 148.23-3.9L148.23-3.9 149.33-1.75ZM147.78-17.45Q147.78-20.55 145.83-21.83 143.88-23.1 141.73-23.1L141.73-23.1Q138.98-23.1 137.18-21.6 135.38-20.1 135.38-16.9L135.38-16.9 135.38-12.5 147.78-13.1 147.78-17.45ZM171.43 0L171.43-17.15Q171.43-20.2 169.66-21.58 167.88-22.95 165.08-22.95L165.08-22.95Q163.38-22.95 161.63-22.48 159.88-22 158.53-21.25L158.53-21.25 158.53 0 155.73 0 155.73-25.05 158.53-25.05 158.33-23.35Q159.53-24.4 161.38-24.93 163.23-25.45 165.23-25.45L165.23-25.45Q167.98-25.45 169.93-24.55L169.93-24.55Q171.93-23.65 173.06-21.85 174.18-20.05 174.18-17.3L174.18-17.3 174.18 0 171.43 0ZM185.03 0.65Q182.23-0.15 180.98-1.9 179.73-3.65 179.73-6.6L179.73-6.6 179.73-35 182.53-35 182.53-25.05 188.53-25.05 187.33-22.4 182.53-22.4 182.53-6.6Q182.53-2.6 185.83-1.5L185.83-1.5 185.03 0.65ZM208.18-1.75Q206.38-0.6 204.08 0 201.78 0.6 199.48 0.6L199.48 0.6Q195.78 0.6 193.6-1.23 191.43-3.05 191.43-6.7L191.43-6.7 191.43-16.95Q191.43-21 193.95-23.25 196.48-25.5 200.63-25.5L200.63-25.5Q204.78-25.5 207.1-23.28 209.43-21.05 209.43-17.1L209.43-17.1 209.43-10.6 194.23-9.75 194.23-6.7Q194.23-4.3 195.78-3.1 197.33-1.9 199.83-1.9L199.83-1.9Q203.33-1.9 207.08-3.9L207.08-3.9 208.18-1.75ZM206.63-17.45Q206.63-20.55 204.68-21.83 202.73-23.1 200.58-23.1L200.58-23.1Q197.83-23.1 196.03-21.6 194.23-20.1 194.23-16.9L194.23-16.9 194.23-12.5 206.63-13.1 206.63-17.45ZM214.42 0L214.42-25.05 217.22-25.05 217.07-23.3Q219.42-25.5 223.22-25.5L223.22-25.5Q224.57-25.5 226.92-25.05L226.92-25.05 226.17-22.5Q224.57-23 222.82-23L222.82-23Q220.52-23 218.87-22.15 217.22-21.3 217.22-19.6L217.22-19.6 217.22 0 214.42 0Z" opacity="1" transform="matrix(1,0,0,1,0,0)" fill="#030303" class="slogan-text-1" data-fill-palette-color="secondary" id="text-1"></path></svg></g></svg></g></svg></g></svg></g><g></g></svg></g></svg></g></svg></g><g mask="url(#8f3d9559-cba3-428d-b5a0-a22829442510)"><g transform="matrix(2.8554127119742376, 0, 0, 2.8554127119742376, 54.9893644012881, 1)"><svg xmlns="http://www.w3.org/2000/svg" xmlns:xlink="http://www.w3.org/1999/xlink" version="1.2" baseProfile="tiny" x="0" y="0" viewBox="0 7.064 100 85.8719998589865" xml:space="preserve" height="85.8719998589865" width="100" class="icon-none" data-fill-palette-color="accent" id="none"><circle cx="10.616" cy="86.173" r="6.8" fill="#030303" data-fill-palette-color="accent"></circle><circle cx="65.592" cy="85.329" r="7.6" fill="#030303" data-fill-palette-color="accent"></circle><path d="M99.99 7.064L81.016 7.092l-0.064-0.027-0.008 0.027h-0.063v0.138l-2.66 6.903L0 20.311l4.458 38.484h56.529l-3.611 9.365L6.383 71.336l-1.486 5.445 59.644-1.059 0.586-2.27L86.99 16.259 100 16.24 99.99 7.064zM40.575 24.535l11.875-0.938v9.774h-5.025v3.074h-6.85V24.535zM67.08 43.003h-3.088v-3.598h4.477L67.08 43.003zM36.36 24.868v8.503H24.569V25.8L36.36 24.868zM8.241 27.089l12.113-0.957v10.312H9.325L8.241 27.089zM9.667 39.406h10.688v3.598h-7.279v8.385h-2.02L9.667 39.406zM34.099 51.389v-7.385h2.263v7.385H34.099zM40.575 39.406h6.85v3.598h-5.033v8.385h-1.814V39.406H40.575zM69.611 36.445h-5.619v-3.074h-7.33V23.265l18.012-1.423c0.143 0.116 0.299 0.216 0.443 0.329L69.611 36.445z" fill="#030303" data-fill-palette-color="accent"></path></svg></g></g></svg></g><defs></defs></svg><rect width="395.52" height="247.2" fill="none" stroke="none" visibility="hidden"></rect></g></svg></g></svg>