
        <svg xmlns="http://www.w3.org/2000/svg" xmlns:xlink="http://www.w3.org/1999/xlink" version="1.1" width="1413.793103448276" height="3172.413793103449" viewBox="0 0 1413.793103448276 3172.413793103449">
			
			<g transform="scale(8.620689655172415) translate(10, 10)">
				<defs id="SvgjsDefs4810"><linearGradient id="SvgjsLinearGradient4821"><stop id="SvgjsStop4822" stop-color="#006838" offset="0"/><stop id="SvgjsStop4823" stop-color="#96cf24" offset="1"/></linearGradient><linearGradient id="SvgjsLinearGradient4824"><stop id="SvgjsStop4825" stop-color="#006838" offset="0"/><stop id="SvgjsStop4826" stop-color="#96cf24" offset="1"/></linearGradient></defs><g id="SvgjsG4811" featureKey="rootContainer" transform="matrix(1,0,0,1,0,0)" fill="#000"><path xmlns="http://www.w3.org/2000/svg" fill-rule="evenodd" d="M5,65 L72,0 L139, 65 L72, 10 z M5,268 L72,348 L139,263 L72, 338 z"/></g><g id="SvgjsG4812" featureKey="symbolFeature-0" transform="matrix(0.7714285714285714,0,0,0.7714285714285714,33.142857142857146,81.51428571428572)" fill="#000"><path xmlns="http://www.w3.org/2000/svg" d="M81,78v-8H34.1l1.1-4.6l42.4-2l17.5-37.6L26,22.6l-3-11.6H5v8h11.8l11,42.8l-4,16.2H81z M51,56.6l-5.2,0.2  l-2.3-25.4l7.5,0.3V56.6z M59,32.1l7.4,0.3L64.3,56L59,56.2V32.1z M72.4,55.6L72.4,55.6l2-22.8l8.5,0.4L72.4,55.6z M35.4,31.1  l2.4,26.2l-2.7,0.1l-6.7-26.6L35.4,31.1z"/><circle xmlns="http://www.w3.org/2000/svg" cx="31.5" cy="87.5" r="7.5"/><circle xmlns="http://www.w3.org/2000/svg" cx="76.5" cy="87.5" r="7.5"/></g><g id="SvgjsG4813" featureKey="sloganFeature-0" transform="matrix(1.177336300174607,0,0,1.177336300174607,-0.470934632349382,233.95952890249993)" fill="#000"><path d="M4.84 8.6 l4.78 0 l0 -1.9 l-8.5 0 l0 0.62 l7.82 0 l0 0.72 l-8.54 0 l0 -2.06 l9.94 0 l0 3.34 l-4.78 0 l0 9.36 l-0.72 0 l0 -10.08 z M3.5 9.32 l-3.1 0 l0 -0.72 l3.82 0 l0 10.66 l2 0 l0 -9.32 l0.72 0 l0 10.06 l-3.44 0 l0 -10.68 z M20.39 19.28 l-2.3 0 l-2.76 -5.14 l-1.86 0.02 l0 5.12 l-2.02 0 l0 -13.28 l-0.72 0 l0 14 l3.48 0 l0 -5.14 l0.7 0 l2.74 5.14 l3.94 0 l-2.76 -5.16 l-0.66 0.26 z M15.629999999999999 6.720000000000001 c2.9 0 4.54 1.3 4.54 3.68 c0 2.16 -1.3 3.48 -3.56 3.72 l-0.54 0.06 l2.5 4.62 l0.82 0 l-2.18 -4.06 c2.4 -0.42 3.68 -1.88 3.68 -4.34 c0 -0.82 -0.18 -1.56 -0.52 -2.22 c-0.8 -1.42 -2.44 -2.18 -4.74 -2.18 l-3.54 0 l0 12.78 l0.72 0 l0 -12.06 l2.82 0 z M15.469999999999999 13.52 c2.74 0 4.04 -0.94 4.04 -3.02 c0 -1.98 -1.36 -3.1 -3.54 -3.1 l-2.52 0 l0 2.1 l2.3 0 c1.06 0 1.6 0.3 1.6 0.9 c0 0.7 -0.66 1.04 -2 1.04 l-1.16 0 l0 -1.24 l-0.74 0 l0 1.96 l1.9 0 c1.78 0 2.72 -0.62 2.72 -1.76 c0 -0.36 -0.08 -0.64 -0.26 -0.86 c-0.34 -0.5 -1.02 -0.74 -2.06 -0.74 l-1.56 0 l0 -0.68 l1.78 0 c1.78 0 2.82 0.86 2.82 2.38 c0 1.58 -1.06 2.32 -3.32 2.32 l-2 0 l0 0.7 l2 0 z M22.799999999999997 18.76 l0.88 0 l0.7 -1.68 l5.22 0.02 l1.28 2.9 l3.68 -0.02 l-6.3 -13.98 l-1.28 0 l-6.26 13.98 l3.9 0 l0.68 -1.6 l3.98 0 l-0.3 -0.68 l-4.12 0 l-0.64 1.58 l-2.38 0 l5.54 -12.6 l0.48 0 l5.56 12.6 l-2.12 0 l-1.28 -2.86 l-6.2 0 z M25.18 15.24 l2.44 -5.82 l4.1 9.32 l0.82 0 l-4.92 -10.96 l-3.6 8.08 l5.8 0 l-2.2 -4.86 l-1.52 3.66 l0.78 0 l0.74 -1.82 l1.1 2.4 l-3.54 0 z M44.510000000000005 8.02 c-1.2 -1.26 -2.74 -2 -4.24 -2 l-5.86 0 l0 0.72 l5.86 0.02 c0.94 0 1.84 0.3 2.7 0.88 c1.68 1.18 2.8 3.3 2.8 5.36 c0 1.08 -0.24 2.08 -0.74 3.02 c-1 1.86 -3.02 3.22 -4.76 3.22 l-5.14 0 l0 -11.22 l4.98 0.02 c0.72 0 1.42 0.22 2.08 0.68 c1.34 0.9 2.22 2.62 2.22 4.28 c0 1.22 -0.52 2.48 -1.46 3.46 c-0.88 0.88 -1.94 1.44 -2.82 1.44 l-2.28 0 l0.02 -7.9 l-0.7 0 l-0.02 8.26 l0 0.36 l2.98 0 c1.1 0 2.38 -0.62 3.36 -1.66 c1.06 -1.14 1.64 -2.54 1.64 -3.96 c0 -1.44 -0.56 -2.88 -1.58 -4 c-1.1 -1.1 -2.3 -1.7 -3.44 -1.7 l-5.7 0 l0 12.68 l5.86 0 c1.44 0 3 -0.74 4.18 -2 c1.3 -1.34 2.02 -3.12 2.02 -4.98 s-0.68 -3.62 -1.96 -4.98 z M40.050000000000004 17.259999999999998 c0.56 0 1.14 -0.22 1.76 -0.64 c1.22 -0.86 2 -2.3 2 -3.64 c0 -0.72 -0.18 -1.42 -0.52 -2.1 c-0.7 -1.34 -1.96 -2.18 -3.24 -2.18 l-4.3 0.02 l0.02 9.94 l0.72 0 l0 -9.24 l3.56 -0.02 c0.46 0 0.94 0.18 1.44 0.52 c1.02 0.72 1.6 1.84 1.6 3.06 c0 0.82 -0.38 1.74 -1 2.44 s-1.38 1.12 -2.04 1.12 l-1.42 0 l0 0.72 l1.42 0 z M46.74 6.039999999999999 l0.72 0 l0 13.24 l7.66 0 l0 -2 l-5.64 0 l0 -1.92 l0.72 0 l0 1.2 l5.64 0 l0 3.44 l-9.1 0 l0 -13.96 z M48.1 6.039999999999999 l7.64 0 l0 3.42 l-4.8 0 l0 -0.72 l4.08 0 l0 -1.98 l-6.2 0 l0 5.78 l4.66 0 l0 0.72 l-5.38 0 l0 -7.22 z M48.1 13.9 l6.08 0 l0 -2 l-4.7 0 l0 -4.54 l4.84 0 l0 0.72 l-4.12 0 l0 3.1 l4.7 0 l0 3.44 l-6.08 0 l0 3.32 l5.6 0 l0 0.72 l-6.32 0 l0 -4.76 z M71.32 15.440000000000001 c-1.26 0.82 -1.88 1.06 -2.74 1.06 c-0.6 0 -1.16 -0.16 -1.7 -0.48 c-1.06 -0.64 -1.78 -1.8 -1.78 -3 c0 -0.64 0.16 -1.24 0.48 -1.78 c0.62 -1.08 1.8 -1.72 3 -1.72 c0.76 0 1.44 0.22 2.02 0.64 c0.1 0.06 0.22 0.14 0.36 0.28 l0.3 0.22 l1.34 -1.58 l-0.22 -0.22 c-0.14 -0.14 -0.32 -0.26 -0.54 -0.4 c-0.94 -0.72 -2.04 -1.08 -3.26 -1.08 c-1.5 0 -2.88 0.58 -3.98 1.64 c-1.06 1.12 -1.66 2.5 -1.66 4 s0.6 2.92 1.66 3.98 s2.48 1.66 3.98 1.66 c1.08 0 2.08 -0.3 3.02 -0.9 l-0.4 -0.6 c-0.82 0.54 -1.68 0.8 -2.62 0.8 c-1.3 0 -2.54 -0.52 -3.48 -1.46 s-1.44 -2.18 -1.44 -3.48 s0.5 -2.52 1.44 -3.46 c0.94 -0.96 2.18 -1.46 3.48 -1.46 c0.98 0 1.92 0.3 2.86 0.92 l0.16 0.14 l-0.44 0.5 c-0.06 -0.02 -0.1 -0.04 -0.14 -0.08 c-0.74 -0.5 -1.56 -0.76 -2.44 -0.76 c-0.78 0 -1.48 0.18 -2.1 0.54 c-1.26 0.74 -2.1 2.2 -2.1 3.66 c0 0.7 0.2 1.4 0.58 2.06 c0.78 1.34 2.2 2.16 3.62 2.16 c0.94 0 1.7 -0.28 2.84 -1 l1.12 1.66 c-1.46 0.96 -2.6 1.36 -3.96 1.36 c-1.12 0 -2.16 -0.28 -3.12 -0.84 c-1.94 -1.12 -3.14 -3.16 -3.14 -5.4 c0 -1.12 0.28 -2.16 0.84 -3.14 c1.12 -1.92 3.18 -3.12 5.42 -3.12 c1.58 0 3.08 0.58 4.22 1.64 l0.12 0.1 l0.16 0.16 l0.5 -0.52 l-0.28 -0.28 c-1.28 -1.14 -2.96 -1.8 -4.72 -1.8 c-1.26 0 -2.42 0.3 -3.48 0.92 c-2.12 1.22 -3.5 3.56 -3.5 6.04 c0 1.22 0.32 2.38 0.96 3.46 c1.26 2.16 3.52 3.52 6.02 3.52 c1.58 0 2.9 -0.5 4.68 -1.72 l0.28 -0.18 l-1.9 -2.86 z M72.89 6.039999999999999 l0.72 0 l0 13.24 l7.66 0 l0 -2 l-5.64 0 l0 -1.92 l0.72 0 l0 1.2 l5.64 0 l0 3.44 l-9.1 0 l0 -13.96 z M74.25 6.039999999999999 l7.64 0 l0 3.42 l-4.8 0 l0 -0.72 l4.08 0 l0 -1.98 l-6.2 0 l0 5.78 l4.66 0 l0 0.72 l-5.38 0 l0 -7.22 z M74.25 13.9 l6.08 0 l0 -2 l-4.7 0 l0 -4.54 l4.84 0 l0 0.72 l-4.12 0 l0 3.1 l4.7 0 l0 3.44 l-6.08 0 l0 3.32 l5.6 0 l0 0.72 l-6.32 0 l0 -4.76 z M91.64 14.3 l-8.18 -8.3 l-1 0 l9.9 10.06 l0 -8.66 l-0.72 0 l0 6.9 z M90.98 12.7 l0 -6 l2.04 0 l0 12.58 l-0.34 0 l-0.08 -0.08 l-9.16 -9.28 l0 10.08 l2.1 0 l0 -5.9 l-0.74 -0.76 l0 5.94 l-0.64 0 l0 -7.6 l8.3 8.32 l1.28 0 l0 -14 l-3.48 0 l0 5.92 z M82.78 20 l0 -11.7 l9.58 9.72 l0 -1.06 l-10.28 -10.38 l0 13.42 l0.7 0 z M97.77000000000001 8.6 l4.78 0 l0 -1.9 l-8.5 0 l0 0.62 l7.82 0 l0 0.72 l-8.54 0 l0 -2.06 l9.94 0 l0 3.34 l-4.78 0 l0 9.36 l-0.72 0 l0 -10.08 z M96.43 9.32 l-3.1 0 l0 -0.72 l3.82 0 l0 10.66 l2 0 l0 -9.32 l0.72 0 l0 10.06 l-3.44 0 l0 -10.68 z M102.86000000000001 6.039999999999999 l0.72 0 l0 13.24 l7.66 0 l0 -2 l-5.64 0 l0 -1.92 l0.72 0 l0 1.2 l5.64 0 l0 3.44 l-9.1 0 l0 -13.96 z M104.22000000000001 6.039999999999999 l7.64 0 l0 3.42 l-4.8 0 l0 -0.72 l4.08 0 l0 -1.98 l-6.2 0 l0 5.78 l4.66 0 l0 0.72 l-5.38 0 l0 -7.22 z M104.22000000000001 13.9 l6.08 0 l0 -2 l-4.7 0 l0 -4.54 l4.84 0 l0 0.72 l-4.12 0 l0 3.1 l4.7 0 l0 3.44 l-6.08 0 l0 3.32 l5.6 0 l0 0.72 l-6.32 0 l0 -4.76 z M121.51000000000002 19.28 l-2.3 0 l-2.76 -5.14 l-1.86 0.02 l0 5.12 l-2.02 0 l0 -13.28 l-0.72 0 l0 14 l3.48 0 l0 -5.14 l0.7 0 l2.74 5.14 l3.94 0 l-2.76 -5.16 l-0.66 0.26 z M116.75000000000001 6.720000000000001 c2.9 0 4.54 1.3 4.54 3.68 c0 2.16 -1.3 3.48 -3.56 3.72 l-0.54 0.06 l2.5 4.62 l0.82 0 l-2.18 -4.06 c2.4 -0.42 3.68 -1.88 3.68 -4.34 c0 -0.82 -0.18 -1.56 -0.52 -2.22 c-0.8 -1.42 -2.44 -2.18 -4.74 -2.18 l-3.54 0 l0 12.78 l0.72 0 l0 -12.06 l2.82 0 z M116.59000000000002 13.52 c2.74 0 4.04 -0.94 4.04 -3.02 c0 -1.98 -1.36 -3.1 -3.54 -3.1 l-2.52 0 l0 2.1 l2.3 0 c1.06 0 1.6 0.3 1.6 0.9 c0 0.7 -0.66 1.04 -2 1.04 l-1.16 0 l0 -1.24 l-0.74 0 l0 1.96 l1.9 0 c1.78 0 2.72 -0.62 2.72 -1.76 c0 -0.36 -0.08 -0.64 -0.26 -0.86 c-0.34 -0.5 -1.02 -0.74 -2.06 -0.74 l-1.56 0 l0 -0.68 l1.78 0 c1.78 0 2.82 0.86 2.82 2.38 c0 1.58 -1.06 2.32 -3.32 2.32 l-2 0 l0 0.7 l2 0 z"/></g><g id="SvgjsG4814" featureKey="nameLeftFeature-0" transform="matrix(2.6017415641821855,0,0,2.6017415641821855,48.6469309862702,158.96550988329608)" fill="#000"><path d="M1.4879 13.7396 l0.002871 0.002754 c-0.0009375 0.00039062 -0.0016211 0.0009375 -0.0025 0.0013477 c-0.000097656 -0.0013672 -0.00027344 -0.0027344 -0.0003711 -0.0041016 z M0.8287 9.384 c0 0 -0.000078126 0.000058594 -0.000097656 0.000058594 c0.00011719 -0.00083984 0.0002539 -0.0016797 0.0003711 -0.0025196 c0.00076172 0.000058594 0.0015039 0.000078126 0.0022462 0.000097656 l0.000039062 0 c0 0 -0.001582 0.0014453 -0.0021876 0.0020118 c-0.00011719 0.000097656 -0.00042968 0.00039062 -0.00042968 0.00039062 z M2.6622 18.0293 c0.0095118 0.30752 0.023398 0.61368 0.0053516 0.92142 c-0.0098046 0.16691 -0.017559 0.33372 0.00091796 0.503 c0.018496 0.16955 -0.048164 0.26086 -0.21798 0.2648 c-0.17805 0.0041406 -0.33442 0.13602 -0.51766 0.071308 c-0.080644 0.078632 -0.17648 0.1074 -0.28958 0.11471 c-0.10066 0.006504 -0.19668 0.011152 -0.29896 0.0038868 c-0.11477 -0.008164 -0.21884 0.037382 -0.33778 -0.047676 c-0.08457 -0.060508 -0.08168 0.087012 -0.13795 0.13912 c-0.068106 -0.057794 -0.070918 -0.13813 -0.078906 -0.21382 c-0.01 -0.094512 -0.0067968 -0.19092 -0.022832 -0.28418 c-0.0099218 -0.057734 -0.045684 -0.040938 -0.07043 -0.0011719 l0.0027148 -0.0016211 l0.000058594 0.010195 c-0.00085938 -0.0025586 -0.0017383 -0.0051562 -0.0025196 -0.007754 l-0.042246 0.042304 c0.00060546 0.0009961 0.0011914 0.0019727 0.0017773 0.0029688 c-0.0015625 -0.000019531 -0.0031446 -0.000019531 -0.004707 -0.000039062 l0.000019531 -0.000019531 l-0.000019531 0.000019531 l0.0026954 -0.0033204 c-0.021562 -0.16014 -0.014922 -0.26354 0.022402 -0.3854 c0.0061524 -0.020098 0.012109 -0.043868 0.0072266 -0.063144 c-0.081542 -0.32122 -0.031016 -0.64842 -0.04627 -0.97252 c-0.0089062 -0.18941 -0.025508 -0.37852 -0.039238 -0.56772 c-0.014785 -0.20384 -0.036856 -0.40636 -0.019785 -0.61248 c0.012461 -0.15043 -0.02586 -0.30094 -0.028398 -0.45448 c-0.0065234 -0.39424 0.013652 -0.78824 -0.003164 -1.1828 c-0.015176 -0.35586 -0.05375 -0.71316 0.0033204 -1.07 c0.013711 -0.085644 0.013125 -0.17656 0.0011523 -0.26256 c-0.011855 -0.085156 -0.0047656 -0.15674 0.046524 -0.2279 c0.041992 -0.058242 0.0833 -0.12309 0.025956 -0.19799 c-0.008164 -0.010664 -0.018965 -0.031544 -0.014531 -0.037872 c0.15879 -0.22626 0.077676 -0.5078 0.17691 -0.75664 c0.072656 0.031582 0.0567 0.09668 0.053984 0.14863 c-0.0088086 0.16801 -0.035078 0.33582 -0.033828 0.50356 c0.004375 0.59122 0.017402 1.1824 0.037618 1.7739 c0.051972 -0.18164 0.024258 -0.37086 0.049746 -0.55712 c0.052578 0.012051 0.046562 0.05623 0.06582 0.082012 c0.016211 -0.00017578 0.032422 -0.0003711 0.048554 -0.00048828 c0.084024 -0.343 0.10889 -0.69286 0.12184 -1.0442 c0.0034766 -0.09418 -0.010996 -0.19689 0.089766 -0.27974 c0.033438 0.091914 -0.038672 0.16189 0.0078126 0.22916 c0.000019531 0 -0.0028906 -0.0028516 -0.0028906 -0.0028516 c0.014902 0.029648 0.029786 0.059296 0.044688 0.089004 c0.10508 0.03043 0.073672 0.14051 0.11709 0.21884 c0.086192 -0.030722 0.035626 -0.13832 0.10191 -0.16906 c0.027012 0.38182 0.19445 0.74508 0.12984 1.1417 c0.060644 -0.014219 0.054492 -0.051074 0.053536 -0.074278 c-0.01959 -0.48302 0.047266 -0.96336 0.046426 -1.4453 c-0.00080078 -0.47538 0.03168 -0.94854 0.060528 -1.4223 c0.02002 -0.32904 -0.052012 -0.65256 -0.063516 -0.98006 c-0.02418 -0.6876 -0.017656 -1.3753 -0.018164 -2.063 c-0.000078126 -0.080468 -0.0012695 -0.16096 -0.0042774 -0.24134 c-0.0010938 -0.029726 -0.010254 -0.061192 -0.046484 -0.064472 c-0.047344 -0.0042968 -0.062812 0.031132 -0.066054 0.068946 c-0.00625 0.072578 -0.008164 0.14553 -0.020508 0.21994 c-0.033262 -0.23298 -0.0054492 -0.47942 -0.16104 -0.72672 c-0.044902 0.23704 -0.034786 0.44282 -0.048652 0.69288 c-0.088808 -0.25392 -0.063536 -0.47418 -0.093594 -0.71836 c-0.075722 0.16537 -0.040996 0.3372 -0.15092 0.4671 c-0.069492 -0.051308 0.0045898 -0.14953 -0.079766 -0.20326 c-0.056484 0.0658 -0.065918 0.14998 -0.078808 0.23338 c-0.03877 0.2512 -0.078496 0.5022 -0.11783 0.75328 c-0.038398 -0.0014453 -0.078788 -0.0062696 -0.083046 0.050274 c-0.00017578 0.000019531 -0.00035156 0 -0.00052734 0 c0.010957 0.016445 0.021934 0.03289 0.03289 0.049316 c-0.10494 0.06498 -0.11686 0.17006 -0.11959 0.2846 c-0.086288 -0.18482 -0.092618 -0.37926 -0.094746 -0.57038 c-0.004375 -0.39492 -0.025468 -0.79022 -0.018945 -1.1843 c0.0086524 -0.52412 -0.053126 -1.0521 0.059434 -1.5725 c0.0077148 -0.035684 0.008125 -0.073126 0.017422 -0.1083 c0.039004 -0.14764 0.083594 -0.18615 0.23418 -0.15969 c0.38798 0.068184 0.77448 0.14496 1.1612 0.2202 c0.1365 0.026544 0.27126 0.06248 0.40806 0.086934 c0.1102 0.019707 0.16633 0.079336 0.17768 0.18955 c0.0442 0.4295 0.10949 0.85814 0.0417 1.2913 c-0.0067774 0.043164 -0.013008 0.088222 -0.0081836 0.13115 c0.066192 0.59116 0.019043 1.1845 0.036856 1.7763 c0.017461 0.57886 0.002754 1.1574 0.0016992 1.7361 c-0.0014258 0.78356 0.0086132 1.567 0.0030664 2.3506 c-0.0041796 0.59248 -0.0026954 1.186 -0.0039844 1.7788 c-0.00066406 0.30602 0.043848 0.615 -0.019434 0.9203 c-0.004375 0.021152 -0.0066406 0.044668 -0.002168 0.06543 c0.09414 0.43698 -0.0039648 0.87492 0.0095508 1.3117 z M0.7131 9.444 c0.0082226 -0.0039454 0.016426 -0.007871 0.024688 -0.011777 c-0.0042578 -0.00013672 -0.008457 -0.00011719 -0.012285 0.0010742 c-0.0047852 0.0014648 -0.0083204 0.0069922 -0.012402 0.010703 z M1.6517 8.447 c0.015293 0.010273 0.030782 0.0019141 0.029942 -0.016387 c-0.00050782 -0.011582 -0.01252 -0.022656 -0.019434 -0.033926 c-0.0175 -0.0057618 -0.032246 0.000078126 -0.031562 0.016992 c0.00048828 0.01166 0.010781 0.026446 0.021054 0.03332 z M0.94814 14.733799999999999 c0.002539 -0.0076172 0.0050976 -0.015254 0.0076172 -0.022872 c-0.0027148 0.0026368 -0.0053126 0.005371 -0.0069922 0.0085546 c-0.0020312 0.0038086 -0.00054688 0.0094726 -0.000625 0.014316 z M1.0289 15.084800000000001 c0.010586 -0.14842 0.04293 -0.26412 -0.019746 -0.3771 c-0.029746 0.11508 -0.058828 0.2306 0.019746 0.3771 z M1.3801 14.365400000000001 c-0.0039454 0.004043 -0.010645 0.007793 -0.011055 0.012168 c-0.00041016 0.0045508 0.0052344 0.009629 0.0082226 0.014492 c0.0040626 -0.0038282 0.008125 -0.0076758 0.01207 -0.011406 c-0.0033008 -0.0054492 -0.00625 -0.010332 -0.0092382 -0.015254 z M1.2249 13.8032 c0.011563 0.018555 0.033438 0.037618 0.050254 0.023516 c0.042382 -0.03539 0.0025782 -0.075918 -0.0019531 -0.11439 c-0.00066406 -0.0054492 -0.0030664 -0.010684 -0.0051954 -0.015957 c-0.056876 0.017715 -0.077988 0.050762 -0.043106 0.10684 z M1.2468 13.9046 c-0.010625 0.099238 -0.021054 0.15998 0.020176 0.2415 c0.058028 -0.088398 0.048204 -0.14773 -0.020176 -0.2415 z M1.4002 14.5332 c-0.1101 -0.025722 -0.049356 -0.16924 -0.16117 -0.23792 c0.013047 0.29014 -0.0099218 0.55098 0.079882 0.80322 c0.035546 -0.02914 0.077656 -0.038946 0.12225 -0.041446 c-0.091446 -0.10959 -0.13131 -0.22494 -0.039218 -0.3558 c0.039532 -0.056132 0.000019531 -0.11201 -0.0017383 -0.16805 z M1.3394 15.66 l0.00029296 -0.014727 l-0.0095508 0.007207 z M1.3581 15.8494 c0 0 0.0020312 0.0018359 0.0020508 0.0018359 z M1.319 15.1036 c0.0011719 0.12648 0.0026368 0.12705 0.1134 0.15006 c-0.028574 -0.062656 -0.062598 -0.11238 -0.1134 -0.15006 z M1.6528 15.1572 c0.0019336 -0.0061524 0.0023242 -0.013516 0.00083984 -0.019824 c-0.0014453 -0.0061328 -0.0058984 -0.011582 -0.0090234 -0.017324 c-0.0020312 0.012832 -0.0040626 0.025664 -0.0060742 0.038496 c0.0049804 -0.0003711 0.013711 0.00041016 0.014258 -0.0013477 z M1.5379 12.071 c-0.0076172 -0.68682 -0.017813 -1.3737 0.005039 -2.0604 c0.0013281 -0.039726 -0.01668 -0.087852 0.038282 -0.12596 c0.038906 0.33798 0.035136 0.67144 0.037636 1.0037 c0.0032812 0.43814 -0.009668 0.8764 -0.015371 1.3146 c-0.0005664 0.043222 0.0014844 0.08668 -0.02873 0.12254 c-0.034278 -0.081562 -0.035898 -0.16861 -0.036856 -0.25454 z M1.5763 12.3296 l-0.0028126 -0.0022266 c0.00048828 -0.0005664 0.00080078 -0.0011719 0.0012891 -0.0017383 c0.0005664 0.0013281 0.00095704 0.0026758 0.0015234 0.0039648 z M1.4245 11.0004 c-0.016914 -0.40198 -0.036036 -0.80398 0.016816 -1.2047 c-0.005039 0.40158 -0.0024218 0.8033 -0.016816 1.2047 z M0.78808 12.59 c-0.095626 -0.076152 0.021114 -0.17223 -0.017773 -0.25354 c0.063906 0.079688 0.063046 0.1648 0.017773 0.25354 z M1.451 13.6754 c-0.033828 -0.10555 -0.0031836 -0.1718 0.04463 -0.23476 c0.0092382 0.07162 0.035058 0.14631 -0.04463 0.23476 z M0.7829 12.1186 c-0.0006836 -0.00017578 -0.0013281 -0.00039062 -0.0020312 -0.00054688 c0 0 0.0024414 -0.0026172 0.0023242 -0.0025196 c-0.000078126 0.0010352 -0.00019531 0.0020312 -0.00029296 0.0030664 z M0.82758 12.2226 c-0.037598 0.014863 -0.048692 -0.011484 -0.04914 -0.04295 c-0.00029296 -0.020294 0.0026368 -0.040626 0.0044922 -0.061016 c0.027988 0.006914 0.052286 0.019238 0.061348 0.049278 c0.0064258 0.02127 0.0048046 0.046172 -0.016699 0.054688 z M1.5764 12.3296 c-0.0009375 0.0015625 -0.0016602 0.003164 -0.002539 0.0047266 c-0.000097656 -0.0023242 -0.00021484 -0.004668 -0.00033204 -0.0069922 c0 0 0.002793 0.0022266 0.002871 0.0022656 z M1.5814 12.4854 c-0.043066 -0.05295 -0.034706 -0.10264 -0.0075586 -0.15102 c0.0025196 0.050332 0.005039 0.10068 0.0075586 0.15102 z M1.454 9.328 c0.029044 -0.0021484 0.029024 0.023066 0.027832 0.042636 c-0.00080078 0.012949 -0.010137 0.03666 -0.014199 0.036348 c-0.025176 -0.0019141 -0.031426 -0.022304 -0.031972 -0.045996 c0.0055468 -0.010566 0.011152 -0.032442 0.01834 -0.032988 z M0.78024 12.061 c0.00050782 -0.00054688 0.0011523 -0.0010938 0.0017188 -0.0016016 c0.00021484 0.0014258 0.00050782 0.002871 0.00064454 0.0042578 c0.000019531 0.000019531 0.00013672 0.00015625 0.00013672 0.00015625 c0.00021484 0.017383 0.0003125 0.034648 0.00050782 0.051816 c0.00011719 -0.000097656 -0.0023438 0.0025 -0.0022462 0.0024024 c-0.00019531 -0.019082 -0.00046876 -0.038046 -0.00076172 -0.057032 z M0.80906 12.0296 c-0.004961 0.011641 -0.017402 0.020078 -0.02711 0.029668 c-0.0019531 -0.01293 -0.005957 -0.026426 -0.0029296 -0.038066 c0.0050196 -0.019258 0.015918 -0.03711 0.025626 -0.054824 c0.00076172 -0.0013672 0.0175 0.0039062 0.017402 0.0045508 c-0.0033204 0.019805 -0.0052344 0.040488 -0.012988 0.058672 z M1.5786 9.724 c-0.015078 0.0030274 -0.021934 -0.0048632 -0.019805 -0.020254 c0.0034766 -0.004746 0.0063086 -0.012813 0.010547 -0.013613 c0.015 -0.0028906 0.022656 0.0051954 0.019707 0.020254 c-0.0010352 0.0052148 -0.0060938 0.012734 -0.010449 0.013613 z M1.4949 13.434999999999999 c-0.000019531 0 -0.00015625 -0.00011719 -0.00017578 -0.00011719 c0.0002539 -0.00060546 0.0005664 -0.0011914 0.00082032 -0.0017969 c0.0009375 0.0013281 0.0018945 0.0026172 0.002832 0.0039062 c0 0 -0.00083984 -0.00048828 -0.0016992 -0.00097656 l0.0016797 0.00097656 c-0.0009375 0.0011914 -0.0018164 0.0024218 -0.0027148 0.0036132 c-0.0002539 -0.0018555 -0.00052734 -0.0037304 -0.00074218 -0.0056054 z M1.4823 13.344999999999999 c0.02207 0.0091016 0.032462 0.027168 0.028184 0.05039 c-0.0024024 0.013047 -0.009668 0.025196 -0.01498 0.037754 c-0.0074218 -0.010313 -0.014883 -0.020586 -0.022266 -0.030918 c-0.011953 -0.016777 -0.027812 -0.033378 -0.010527 -0.054942 c0.0030078 -0.0037696 0.014063 -0.0045508 0.01959 -0.0022852 z M1.1869 13.0678 c0.0014844 -0.004629 0.01125 -0.011367 0.013984 -0.010117 c0.029434 0.01332 0.020606 0.039922 0.021738 0.063126 c-0.024414 -0.0088476 -0.046446 -0.019746 -0.035722 -0.053008 z M1.2255 13.1218 l-0.0026758 0.0026954 c-0.00011719 -0.0012305 -0.000097656 -0.0025196 -0.00015625 -0.0037696 c0.00095704 0.00035156 0.0018555 0.00072266 0.002832 0.0010742 z M1.4519 9.559 c0.015762 0.0013477 0.020644 0.011152 0.014824 0.026602 c-0.01 0.0042578 -0.01998 0.008496 -0.02998 0.012734 c-0.00044922 -0.010859 -0.002207 -0.021876 -0.00058594 -0.032402 c0.00048828 -0.0032032 0.010469 -0.0074024 0.015742 -0.0069336 z M0.63102 19.85961 c0.0030468 -0.0014844 0.0091796 0.0032422 0.013809 0.0051954 c-0.00011719 0.0058204 0.0023242 0.013809 -0.0005664 0.017012 c-0.010313 0.011445 -0.019629 0.0079688 -0.022442 -0.0086718 c-0.0006836 -0.0041016 0.0047656 -0.011367 0.0091992 -0.013535 z M1.2257 12.2302 l-0.0072266 0.014102 l-0.0086718 -0.012266 z M0.53724 11.2678 l0.0125 0.0010156 l-0.0072656 0.012031 z M0.78936 12.6006 c-0.00097656 -0.0024024 -0.0019727 -0.0048046 -0.0029492 -0.007168 c0.00060546 -0.0011719 0.0011133 -0.0023438 0.0017188 -0.0035352 c0.00044922 0.00035156 0.00072266 0.00072266 0.0011719 0.0010742 l-0.0022266 0.0019336 c0.00076172 -0.00066406 0.0022266 -0.0019141 0.0021876 -0.0018555 c0.000097656 0.0032032 0.000019531 0.0064062 0.000097656 0.0095508 z M0.7971 12.619399999999999 c-0.0024218 -0.0038672 -0.005957 -0.0074414 -0.0070508 -0.01168 c-0.00058594 -0.0023242 -0.00070312 -0.0047852 -0.00074218 -0.007246 z M0.69562 19.54704 c0.0003125 -0.00046876 0.000625 -0.0009375 0.0009375 -0.0014258 l0.0028126 0.0014453 c-0.00125 0 -0.0025 -0.000019531 -0.00375 -0.000019531 z M0.67504 19.57846 c-0.0063086 -0.010586 -0.012617 -0.021172 -0.018906 -0.031778 l0.03955 0.00035156 c-0.0068946 0.010469 -0.01377 0.020956 -0.020644 0.031426 z M0.6994 19.5471 c0 0 -0.0028126 -0.0014453 -0.002832 -0.0014453 c0.00078126 -0.0012891 0.0017578 -0.0025782 0.002793 -0.0038672 c0.000019531 0.0017773 0.000019531 0.0035352 0.000039062 0.0053126 z M0.70486 19.53128 c0.00039062 0.0032226 -0.0026758 0.0068946 -0.0055078 0.010508 c-0.000078126 -0.010859 -0.00017578 -0.021738 -0.0002539 -0.032618 c0.0024414 0.0073046 0.0048828 0.014609 0.0057618 0.02211 z M0.56534 10.8824 c-0.000019531 -0.000019531 0.002461 -0.0024024 0.002461 -0.0024024 s-0.0024414 0.0024218 -0.002461 0.0024024 z M1.2714 12.7752 c0 0 -0.002754 -0.0026368 -0.0026954 -0.0026172 s0.0026954 0.0026172 0.0026954 0.0026172 z M1.2729 12.946200000000001 c0 0 -0.0025196 0.0025586 -0.0025 0.0025 c0 -0.000058594 0.0025 -0.0025 0.0025 -0.0025 z"/></g><g id="SvgjsG4815" featureKey="nameRightFeature-0" transform="matrix(2.5714285714285716,0,0,2.5714285714285716,59.914287430899485,159.57142857142856)" fill="#000"><path d="M6.2 6 c3.98 0 7.1 3.12 7.1 6.92 c0 3.96 -3.12 7.08 -7.1 7.08 l-5 0 l0 -14 l5 0 z M6.18 17.240000000000002 c2.68 0 4.12 -1.94 4.12 -4.32 c0 -2.22 -1.44 -4.16 -4.12 -4.16 l-2.06 0 l0 8.48 l2.06 0 z"/></g>
			</g>
		</svg>
	